<svg xmlns="http://www.w3.org/2000/svg" xmlns:xlink="http://www.w3.org/1999/xlink" viewBox="1074.806 1877.467 277.009 276.328">
  <defs>
    <style>
      .cls-1 {
        fill: #fc0;
      }

      .cls-2 {
        fill: url(#linear-gradient);
      }

      .cls-3 {
        fill: #fff;
      }

      .cls-4 {
        fill: url(#linear-gradient-2);
      }

      .cls-5 {
        fill: url(#linear-gradient-3);
      }

      .cls-6 {
        fill: url(#linear-gradient-4);
      }
    </style>
    <linearGradient id="linear-gradient" y1="0.501" x2="0.999" y2="0.501" gradientUnits="objectBoundingBox">
      <stop offset="0" stop-color="#fae810" stop-opacity="0.302"/>
      <stop offset="0.127" stop-color="#f9d413" stop-opacity="0.388"/>
      <stop offset="0.347" stop-color="#f8b818" stop-opacity="0.541"/>
      <stop offset="0.567" stop-color="#f8a31b" stop-opacity="0.698"/>
      <stop offset="0.785" stop-color="#f7971d" stop-opacity="0.851"/>
      <stop offset="1" stop-color="#f7931e"/>
    </linearGradient>
    <linearGradient id="linear-gradient-2" x1="-0.002" y1="0.502" x2="1.005" y2="0.502" xlink:href="#linear-gradient"/>
    <linearGradient id="linear-gradient-3" x1="-0.001" y1="0.499" x2="1.002" y2="0.499" xlink:href="#linear-gradient"/>
    <linearGradient id="linear-gradient-4" x1="-0.001" y1="0.503" x2="0.999" y2="0.503" xlink:href="#linear-gradient"/>
  </defs>
  <g id="Group_43" data-name="Group 43" transform="matrix(0.669, 0.743, -0.743, 0.669, 1221.74, 1875.168)">
    <g id="Group_39" data-name="Group 39" transform="translate(3.093 0)">
      <path id="Path_38" data-name="Path 38" class="cls-1" d="M162.34,60.612a22.624,22.624,0,0,0-8.445,4.9h0c-14.3,12.395-25.062,9.807-37.185,1.226h0a49.37,49.37,0,0,0-10.352-6.129h0c-13.348-6.4-20.84-14.574-16.89-33.1h0a21.59,21.59,0,0,0,.272-9.807,22.011,22.011,0,1,0-43.178,8.581,20.888,20.888,0,0,0,4.086,8.99h0c9.671,13.893,7.628,23.7.136,33.507-5.857,2.043-15.391-2.043-21.112-14.3-.136-.409-.409-.953-.545-1.362,0-.136,0-.136-.136-.272h0A15.441,15.441,0,0,0,10.6,45.357,15.258,15.258,0,0,0,.8,64.7,15.483,15.483,0,0,0,15.917,75.323h1.226c6.4-.272,23.428.545,20.7,12.122-.545,1.362-1.09,2.724-1.5,4.086h0a52.338,52.338,0,0,0-1.634,26.424,55.1,55.1,0,0,0,3.405,10.76h0c5.176,12.94,7.083,21.112-5.585,31.328a29.915,29.915,0,0,0-2.452,1.907h0a26.615,26.615,0,0,0-4.359,5.176,22.051,22.051,0,1,0,37.866,22.611,22.6,22.6,0,0,0,2.588-6.266h0a25.424,25.424,0,0,0,.545-3.405c2.724-15.936,8.99-19.205,22.747-20.7h0a52.73,52.73,0,0,0,6.266-.817c.681-.136,1.226-.272,1.771-.409h-.136c6.538-2.043,15.936,5.721,16.073,21.521v1.771h0a15.387,15.387,0,1,0,21.521-14.847h0c-.136,0-.136,0-.272-.136-.272-.136-.681-.272-.953-.409-5.993-2.452-20.976-10.352-13.621-19.75,1.09-.953,2.043-1.907,3.133-3h.136a50.846,50.846,0,0,0,11.578-19.75h0c5.04-13.893,12.259-22.338,31.192-20.431a22.022,22.022,0,0,0,24.109-28.467A22.513,22.513,0,0,0,162.34,60.612Z" transform="translate(0 0)"/>
      <path id="Path_39" data-name="Path 39" class="cls-2" d="M50.786,24.17c-5.857,2.043-15.391-2.043-21.112-14.3-.136-.409-.409-.953-.545-1.362,0-.136,0-.136-.136-.272h0A15.441,15.441,0,0,0,10.6.742,15.258,15.258,0,0,0,.8,20.084,15.483,15.483,0,0,0,15.917,30.708h1.226c6.4-.272,23.428.545,20.7,12.123-.545,1.362-1.09,2.724-1.5,4.086h0a52.338,52.338,0,0,0-1.634,26.424A55.1,55.1,0,0,0,38.119,84.1h0c5.176,12.94,7.083,21.112-5.585,31.328a29.919,29.919,0,0,0-2.452,1.907h0a26.616,26.616,0,0,0-4.359,5.176,22.051,22.051,0,1,0,37.866,22.61,22.6,22.6,0,0,0,2.588-6.266h0a25.424,25.424,0,0,0,.545-3.405c2.724-15.936,8.99-19.205,22.747-20.7h0a52.73,52.73,0,0,0,6.266-.817c.681-.136,1.226-.272,1.771-.409h-.136c6.538-2.043,15.936,5.721,16.073,21.521v1.771h0a15.387,15.387,0,1,0,21.521-14.847h0c-.136,0-.136,0-.272-.136-.272-.136-.681-.272-.953-.409-5.993-2.452-20.976-10.352-13.621-19.75,1.09-.953,2.043-1.907,3.133-3h.136a55.687,55.687,0,0,0,6.81-8.99L52.012,22.944A9.969,9.969,0,0,0,50.786,24.17Z" transform="translate(0 44.615)"/>
      <circle id="Ellipse_48" data-name="Ellipse 48" class="cls-3" cx="8.854" cy="8.854" r="8.854" transform="translate(57.904 14.66) rotate(-49.542)"/>
      <ellipse id="Ellipse_49" data-name="Ellipse 49" class="cls-3" cx="6.81" cy="6.81" rx="6.81" ry="6.81" transform="translate(154.501 74.625) rotate(-49.542)"/>
    </g>
    <g id="Group_40" data-name="Group 40" transform="translate(96.018 6.222)">
      <ellipse id="Ellipse_50" data-name="Ellipse 50" class="cls-1" cx="7.9" cy="7.9" rx="7.9" ry="7.9" transform="translate(0 12.022) rotate(-49.542)"/>
      <path id="Path_40" data-name="Path 40" class="cls-4" d="M1.913,0a7.823,7.823,0,0,0,11.85,10.216Z" transform="translate(3.211 6.037)"/>
    </g>
    <g id="Group_41" data-name="Group 41" transform="translate(0 121.171)">
      <ellipse id="Ellipse_51" data-name="Ellipse 51" class="cls-1" cx="11.033" cy="11.033" rx="11.033" ry="11.033" transform="translate(0 16.79) rotate(-49.542)"/>
      <path id="Path_41" data-name="Path 41" class="cls-5" d="M2.639,0A11.014,11.014,0,1,0,19.393,14.3Z" transform="translate(4.52 8.499)"/>
    </g>
    <g id="Group_42" data-name="Group 42" transform="translate(122.587 33.205)">
      <ellipse id="Ellipse_52" data-name="Ellipse 52" class="cls-1" cx="12.395" cy="12.395" rx="12.395" ry="12.395" transform="matrix(0.65, -0.76, 0.76, 0.65, 0, 18.848)"/>
      <path id="Path_42" data-name="Path 42" class="cls-6" d="M2.93,0A12.457,12.457,0,0,0,4.292,17.435a12.457,12.457,0,0,0,17.435-1.362Z" transform="translate(5.182 9.428)"/>
    </g>
  </g>
</svg>
