<svg xmlns="http://www.w3.org/2000/svg" xmlns:xlink="http://www.w3.org/1999/xlink" viewBox="1361.573 1881.683 250.043 241.416">
  <defs>
    <style>
      .cls-1 {
        fill: #fc0;
      }

      .cls-2 {
        fill: url(#linear-gradient);
      }

      .cls-3 {
        fill: #fff;
      }

      .cls-4 {
        fill: url(#linear-gradient-2);
      }

      .cls-5 {
        fill: url(#linear-gradient-3);
      }

      .cls-6 {
        fill: url(#linear-gradient-4);
      }
    </style>
    <linearGradient id="linear-gradient" y1="0.501" x2="1.001" y2="0.501" gradientUnits="objectBoundingBox">
      <stop offset="0" stop-color="#fae810" stop-opacity="0.302"/>
      <stop offset="0.127" stop-color="#f9d413" stop-opacity="0.388"/>
      <stop offset="0.347" stop-color="#f8b818" stop-opacity="0.541"/>
      <stop offset="0.567" stop-color="#f8a31b" stop-opacity="0.698"/>
      <stop offset="0.785" stop-color="#f7971d" stop-opacity="0.851"/>
      <stop offset="1" stop-color="#f7931e"/>
    </linearGradient>
    <linearGradient id="linear-gradient-2" x1="0.003" y1="0.499" x2="1.006" y2="0.499" xlink:href="#linear-gradient"/>
    <linearGradient id="linear-gradient-3" x1="0.001" y1="0.503" x2="1.003" y2="0.503" xlink:href="#linear-gradient"/>
    <linearGradient id="linear-gradient-4" x1="-0.002" y1="0.503" x2="0.999" y2="0.503" xlink:href="#linear-gradient"/>
  </defs>
  <g id="Group_54" data-name="Group 54" transform="translate(503 545)">
    <g id="Group_50" data-name="Group 50">
      <g id="Group_38" data-name="Group 38" transform="translate(1108.616 1473.641) rotate(155)">
        <g id="Group_34" data-name="Group 34" transform="translate(0 0)">
          <path id="Path_33" data-name="Path 33" class="cls-1" d="M1.264,14.68A21.835,21.835,0,0,0,14.448,42.538a21.457,21.457,0,0,0,9.63,1.146c18.686-1.146,25.565,7.337,30.036,21.323h0a50.426,50.426,0,0,0,4.471,11.006h0c6.649,13.069,7.681,23.96-6.535,36.227a20.9,20.9,0,0,0-6.076,7.566,21.791,21.791,0,1,0,41.385,9.63h0c.8-18.686,10.088-24.648,24.419-27.514h0a49.416,49.416,0,0,0,9.974-2.751h-.115c6.191-2.866,16.394,3.554,18.572,19.03,0,.459.115.917.115,1.376v.229h0a15.194,15.194,0,1,0,19.03-17.311h0c-.115,0-.115,0-.229-.115a3.347,3.347,0,0,0-1.032-.229c-6.076-1.6-21.9-7.337-16.05-17.54l.115-.115c9.286-10.088,15.706-15.247,30.151-8.369A15.41,15.41,0,0,0,175.06,77.5h0a24.8,24.8,0,0,0,6.535,1.6,21.817,21.817,0,0,0,4.012-43.449,18.284,18.284,0,0,0-6.649.459h0a26.231,26.231,0,0,0-3.21.917c-15.362,4.356-20.979.115-28.2-11.464h0A50.878,50.878,0,0,0,74.061,9.292h0c-12.267,8.025-23.043,10.2-36.685-2.522A21.755,21.755,0,0,0,1.264,14.68Z"/>
          <path id="Path_34" data-name="Path 34" class="cls-2" d="M0,143.874a21.839,21.839,0,0,0,29.119-10.088,21.636,21.636,0,0,0,2.178-9.4h0c.8-18.686,10.088-24.648,24.419-27.514h0a49.416,49.416,0,0,0,9.974-2.751h-.115c6.191-2.866,16.394,3.554,18.572,19.03,0,.459.115.917.115,1.376v.229h0a15.194,15.194,0,1,0,19.03-17.311h0c-.115,0-.115,0-.229-.115a3.347,3.347,0,0,0-1.032-.229c-6.076-1.6-21.9-7.337-16.05-17.54l.115-.115C95.381,69.358,101.8,64.2,116.246,71.077A15.41,15.41,0,0,0,119,72.453h0a24.8,24.8,0,0,0,6.535,1.6,21.817,21.817,0,0,0,4.012-43.449,18.284,18.284,0,0,0-6.649.459h0a26.231,26.231,0,0,0-3.21.917c-15.362,4.356-20.979.115-28.2-11.464h0A50.961,50.961,0,0,0,69.472,0Z" transform="translate(56.063 4.936)"/>
          <circle id="Ellipse_42" data-name="Ellipse 42" class="cls-3" cx="8.713" cy="8.713" r="8.713" transform="translate(2.119 30.755) rotate(-64.145)"/>
          <ellipse id="Ellipse_43" data-name="Ellipse 43" class="cls-3" cx="6.764" cy="6.764" rx="6.764" ry="6.764" transform="translate(45.655 130.787) rotate(-64.145)"/>
          <ellipse id="Ellipse_44" data-name="Ellipse 44" class="cls-3" cx="6.764" cy="6.764" rx="6.764" ry="6.764" transform="translate(72.36 23.378) rotate(-64.145)"/>
        </g>
        <g id="Group_35" data-name="Group 35" transform="translate(103.503 117.658)">
          <circle id="Ellipse_45" data-name="Ellipse 45" class="cls-1" cx="10.891" cy="10.891" r="10.891" transform="translate(0 19.601) rotate(-64.145)"/>
          <path id="Path_35" data-name="Path 35" class="cls-4" d="M0,19.6A10.9,10.9,0,0,0,9.515,0Z" transform="translate(9.765 4.784)"/>
        </g>
        <g id="Group_36" data-name="Group 36" transform="translate(12.344 49.603)">
          <ellipse id="Ellipse_46" data-name="Ellipse 46" class="cls-1" cx="12.037" cy="12.037" rx="12.037" ry="12.037" transform="translate(0 21.665) rotate(-64.145)"/>
          <path id="Path_36" data-name="Path 36" class="cls-5" d="M0,21.667A12.024,12.024,0,0,0,10.432,0Z" transform="translate(10.817 5.201)"/>
        </g>
        <g id="Group_37" data-name="Group 37" transform="translate(22.103 102.447)">
          <ellipse id="Ellipse_47" data-name="Ellipse 47" class="cls-1" cx="7.681" cy="7.681" rx="7.681" ry="7.681" transform="translate(0 13.824) rotate(-64.145)"/>
          <path id="Path_37" data-name="Path 37" class="cls-6" d="M0,13.872a7.791,7.791,0,0,0,10.318-3.554A7.791,7.791,0,0,0,6.764,0Z" transform="translate(6.904 3.258)"/>
        </g>
      </g>
      <g id="Group_48" data-name="Group 48" transform="translate(1078.07 1528.016) rotate(155)">
        <g id="Group_44" data-name="Group 44" transform="translate(0 0)">
          <path id="Path_43" data-name="Path 43" class="cls-1" d="M.729,78.707A12.6,12.6,0,0,1,8.335,62.637a12.378,12.378,0,0,1,5.555-.661c10.78.661,14.748-4.233,17.327-12.3h0A29.09,29.09,0,0,1,33.8,43.326h0c3.836-7.539,4.431-13.822-3.77-20.9a12.055,12.055,0,0,1-3.505-4.365A12.571,12.571,0,1,1,50.4,12.507h0c.463,10.78,5.82,14.219,14.087,15.872h0a28.508,28.508,0,0,1,5.754,1.587H70.17c3.571,1.653,9.457-2.05,10.714-10.978,0-.265.066-.529.066-.794v-.132h0a8.765,8.765,0,1,1,10.978,9.986h0c-.066,0-.066,0-.132.066a1.931,1.931,0,0,1-.6.132c-3.505.926-12.632,4.233-9.259,10.119l.066.066c5.357,5.82,9.06,8.8,17.393,4.828a8.89,8.89,0,0,1,1.587-.794h0a14.306,14.306,0,0,1,3.77-.926A12.586,12.586,0,0,1,107.073,66.6a10.548,10.548,0,0,1-3.836-.265h0a15.132,15.132,0,0,1-1.852-.529c-8.862-2.513-12.1-.066-16.269,6.613h0a29.35,29.35,0,0,1-42.392,9.391h0c-7.076-4.629-13.293-5.886-21.163,1.455A12.55,12.55,0,0,1,.729,78.707Z" transform="translate(0 0)"/>
          <path id="Path_44" data-name="Path 44" class="cls-2" d="M0,1.264a12.6,12.6,0,0,1,16.8,5.82,12.481,12.481,0,0,1,1.257,5.423h0c.463,10.78,5.82,14.219,14.087,15.872h0a28.508,28.508,0,0,1,5.754,1.587h-.066c3.571,1.653,9.457-2.05,10.714-10.978,0-.265.066-.529.066-.794v-.132h0a8.765,8.765,0,1,1,10.978,9.986h0c-.066,0-.066,0-.132.066a1.931,1.931,0,0,1-.6.132c-3.505.926-12.632,4.233-9.259,10.119l.066.066c5.357,5.82,9.06,8.8,17.393,4.828a8.889,8.889,0,0,1,1.587-.794h0a14.306,14.306,0,0,1,3.77-.926A12.586,12.586,0,0,1,74.732,66.6,10.548,10.548,0,0,1,70.9,66.34h0a15.133,15.133,0,0,1-1.852-.529c-8.862-2.513-12.1-.066-16.269,6.613h0a29.4,29.4,0,0,1-12.7,11.838Z" transform="translate(32.341 0.066)"/>
          <circle id="Ellipse_53" data-name="Ellipse 53" class="cls-3" cx="5.026" cy="5.026" r="5.026" transform="translate(10.269 65.05) rotate(64.145)"/>
          <ellipse id="Ellipse_54" data-name="Ellipse 54" class="cls-3" cx="3.902" cy="3.902" rx="3.902" ry="3.902" transform="translate(33.36 8.324) rotate(64.145)"/>
          <ellipse id="Ellipse_55" data-name="Ellipse 55" class="cls-3" cx="3.902" cy="3.902" rx="3.902" ry="3.902" transform="translate(48.766 70.286) rotate(64.145)"/>
        </g>
        <g id="Group_45" data-name="Group 45" transform="translate(59.709 2.514)">
          <circle id="Ellipse_56" data-name="Ellipse 56" class="cls-1" cx="6.283" cy="6.283" r="6.283" transform="translate(11.308 0) rotate(64.145)"/>
          <path id="Path_45" data-name="Path 45" class="cls-4" d="M0,.632A6.285,6.285,0,0,1,5.489,11.941Z" transform="translate(5.633 2.086)"/>
        </g>
        <g id="Group_46" data-name="Group 46" transform="translate(7.121 40.006)">
          <ellipse id="Ellipse_57" data-name="Ellipse 57" class="cls-1" cx="6.944" cy="6.944" rx="6.944" ry="6.944" transform="translate(12.498 0) rotate(64.145)"/>
          <path id="Path_46" data-name="Path 46" class="cls-5" d="M0,.682a6.936,6.936,0,0,1,6.018,12.5Z" transform="translate(6.24 2.372)"/>
        </g>
        <g id="Group_47" data-name="Group 47" transform="translate(12.751 16.237)">
          <ellipse id="Ellipse_58" data-name="Ellipse 58" class="cls-1" cx="4.431" cy="4.431" rx="4.431" ry="4.431" transform="translate(7.975 0) rotate(64.145)"/>
          <path id="Path_47" data-name="Path 47" class="cls-6" d="M0,.438a4.494,4.494,0,0,1,5.952,2.05A4.494,4.494,0,0,1,3.9,8.44Z" transform="translate(3.983 1.52)"/>
        </g>
      </g>
    </g>
  </g>
</svg>
