<svg xmlns="http://www.w3.org/2000/svg" xmlns:xlink="http://www.w3.org/1999/xlink" viewBox="5418.545 1055.082 275.624 277.95">
  <defs>
    <style>
      .cls-1 {
        fill: #fc0;
      }

      .cls-2 {
        fill: url(#linear-gradient);
      }

      .cls-3 {
        fill: url(#linear-gradient-2);
      }

      .cls-4 {
        fill: url(#linear-gradient-3);
      }

      .cls-5 {
        fill: url(#linear-gradient-4);
      }

      .cls-6 {
        fill: #fff;
      }
    </style>
    <linearGradient id="linear-gradient" x1="0.001" y1="0.5" x2="0.999" y2="0.5" gradientUnits="objectBoundingBox">
      <stop offset="0" stop-color="#fae810" stop-opacity="0.302"/>
      <stop offset="0.127" stop-color="#f9d413" stop-opacity="0.388"/>
      <stop offset="0.347" stop-color="#f8b818" stop-opacity="0.541"/>
      <stop offset="0.567" stop-color="#f8a31b" stop-opacity="0.698"/>
      <stop offset="0.785" stop-color="#f7971d" stop-opacity="0.851"/>
      <stop offset="1" stop-color="#f7931e"/>
    </linearGradient>
    <linearGradient id="linear-gradient-2" x1="-0.008" y1="0.496" x2="0.996" y2="0.496" xlink:href="#linear-gradient"/>
    <linearGradient id="linear-gradient-3" x1="-0.004" y1="0.497" x2="0.999" y2="0.497" xlink:href="#linear-gradient"/>
    <linearGradient id="linear-gradient-4" x1="-0.001" y1="0.501" x2="1" y2="0.501" xlink:href="#linear-gradient"/>
  </defs>
  <g id="Group_19311" data-name="Group 19311" transform="matrix(0.485, -0.875, 0.875, 0.485, 5418.546, 1235.77)">
    <g id="Group_19307" data-name="Group 19307" transform="translate(130.945 11.397)">
      <ellipse id="Ellipse_792" data-name="Ellipse 792" class="cls-1" cx="11.086" cy="11.086" rx="11.086" ry="11.086" transform="translate(0 11.553) rotate(-31.406)"/>
      <path id="Path_4650" data-name="Path 4650" class="cls-2" d="M20.621,5.293A11.221,11.221,0,0,0,5.293,1.6,11.221,11.221,0,0,0,1.6,16.926Z" transform="translate(4.04 4.098)"/>
    </g>
    <g id="Group_19308" data-name="Group 19308" transform="translate(14.572 89.405)">
      <ellipse id="Ellipse_793" data-name="Ellipse 793" class="cls-1" cx="7.938" cy="7.938" rx="7.938" ry="7.938" transform="translate(0 8.273) rotate(-31.406)"/>
      <path id="Path_4651" data-name="Path 4651" class="cls-3" d="M14.595,3.783A7.863,7.863,0,0,0,1.182,11.994Z" transform="translate(3.13 3.01)"/>
    </g>
    <g id="Group_19309" data-name="Group 19309" transform="translate(127.14 154.591)">
      <ellipse id="Ellipse_794" data-name="Ellipse 794" class="cls-1" cx="12.454" cy="12.454" rx="12.454" ry="12.454" transform="matrix(0.854, -0.52, 0.52, 0.854, 0, 12.962)"/>
      <path id="Path_4652" data-name="Path 4652" class="cls-4" d="M22.9,5.933A12.346,12.346,0,0,0,1.828,18.8Z" transform="translate(4.741 4.787)"/>
    </g>
    <g id="Group_19310" data-name="Group 19310" transform="translate(0 0)">
      <path id="Path_4653" data-name="Path 4653" class="cls-1" d="M116.739,180.639a22.8,22.8,0,0,0-.547-6.843h0a15.431,15.431,0,0,0-1.095-3.285c-4.653-15.465-.547-21.35,11.222-28.877h0c.137-.137.274-.137.411-.274a46.427,46.427,0,0,0,5.337-3.7v.137c5.064-4.653,16.97-1.642,23.813,12.728.137.411.411.958.547,1.369,0,.137,0,.137.137.274h0a15.294,15.294,0,0,0,18.476,7.39,15.522,15.522,0,0,0-5.337-30.246h-.137a3.013,3.013,0,0,0-1.095.137c-6.432.274-23.54-.411-20.8-12.18.411-1.095.958-2.19,1.369-3.421h0c5.337-13.96,12.865-22.171,31.751-19.844a22.082,22.082,0,1,0-2.463-42.974,22.253,22.253,0,0,0-8.622,4.79c-14.644,12.044-25.319,9.306-37.225.547A53.789,53.789,0,0,0,100.59,45.149h.137c-6.98.411-14.1-9.58-10.264-24.908.137-.411.274-.958.411-1.369V18.6h0a15.479,15.479,0,0,0-9.58-17.518A15.418,15.418,0,0,0,66.238,27.632h0a.478.478,0,0,0,.274.137,2.863,2.863,0,0,0,.821.547c5.2,3.832,17.792,15.191,8.622,22.445C62.68,56.782,51.731,57.33,39.961,42.549a21.654,21.654,0,0,0-7.527-6.432,22.071,22.071,0,1,0-11.086,41.6c19.023,1.505,24.635,11.086,27.1,25.729h0A52.252,52.252,0,0,0,55.7,123.843a48.444,48.444,0,0,0,11.222,12.865h0c10.538,9.306,15.876,15.739,9.033,30.656a18.549,18.549,0,0,0-1.369,2.874h0a20.926,20.926,0,0,0-1.505,6.569,22,22,0,0,0,20.392,23.677C105.243,201.852,115.781,192.82,116.739,180.639Z" transform="translate(0 0)"/>
      <path id="Path_4654" data-name="Path 4654" class="cls-5" d="M148.9,64.036c-5.611-.547-11.086-3.285-16.7-7.527A51.664,51.664,0,0,0,100.59,45.149h.137c-6.98.411-14.1-9.58-10.264-24.908.137-.411.274-.958.411-1.369V18.6h0a15.479,15.479,0,0,0-9.58-17.518A15.418,15.418,0,0,0,66.238,27.632h0a.478.478,0,0,0,.274.137,2.863,2.863,0,0,0,.821.547c5.2,3.832,17.792,15.191,8.622,22.445C62.68,56.782,51.731,57.33,39.961,42.549a21.654,21.654,0,0,0-7.527-6.432,22.071,22.071,0,1,0-11.086,41.6c19.023,1.505,24.635,11.086,27.1,25.729h0a53.5,53.5,0,0,0,5.885,18.2Z" transform="translate(0 0)"/>
      <circle id="Ellipse_795" data-name="Ellipse 795" class="cls-6" cx="8.896" cy="8.896" r="8.896" transform="translate(178.293 75.199) rotate(-31.406)"/>
      <circle id="Ellipse_796" data-name="Ellipse 796" class="cls-6" cx="8.896" cy="8.896" r="8.896" transform="translate(88.512 178.633) rotate(-31.406)"/>
      <ellipse id="Ellipse_797" data-name="Ellipse 797" class="cls-6" cx="4.516" cy="4.516" rx="4.516" ry="4.516" transform="translate(168.706 145.196) rotate(-31.406)"/>
    </g>
  </g>
</svg>
