<svg xmlns="http://www.w3.org/2000/svg" xmlns:xlink="http://www.w3.org/1999/xlink" viewBox="5137.008 1051.452 278.226 263.712">
  <defs>
    <style>
      .cls-1 {
        fill: #fc0;
      }

      .cls-2 {
        fill: url(#linear-gradient);
      }

      .cls-3 {
        fill: #fff;
      }

      .cls-4 {
        fill: url(#linear-gradient-2);
      }

      .cls-5 {
        fill: url(#linear-gradient-3);
      }

      .cls-6 {
        fill: url(#linear-gradient-4);
      }
    </style>
    <linearGradient id="linear-gradient" x1="0.002" y1="0.5" x2="0.999" y2="0.5" gradientUnits="objectBoundingBox">
      <stop offset="0" stop-color="#fae810" stop-opacity="0.302"/>
      <stop offset="0.127" stop-color="#f9d413" stop-opacity="0.388"/>
      <stop offset="0.347" stop-color="#f8b818" stop-opacity="0.541"/>
      <stop offset="0.567" stop-color="#f8a31b" stop-opacity="0.698"/>
      <stop offset="0.785" stop-color="#f7971d" stop-opacity="0.851"/>
      <stop offset="1" stop-color="#f7931e"/>
    </linearGradient>
    <linearGradient id="linear-gradient-2" x1="0.01" y1="0.499" x2="1.005" y2="0.499" xlink:href="#linear-gradient"/>
    <linearGradient id="linear-gradient-3" x1="0.002" y1="0.502" x2="0.997" y2="0.502" xlink:href="#linear-gradient"/>
    <linearGradient id="linear-gradient-4" x1="0.003" y1="0.499" x2="1" y2="0.499" xlink:href="#linear-gradient"/>
  </defs>
  <g id="Group_19316" data-name="Group 19316" transform="matrix(0.875, -0.485, 0.485, 0.875, 5137.008, 1157.112)">
    <g id="Group_19312" data-name="Group 19312" transform="translate(0 0)">
      <path id="Path_4655" data-name="Path 4655" class="cls-1" d="M215.289,167.48a23.623,23.623,0,0,0-10.866-31.61,21.669,21.669,0,0,0-6.915-2.117h0a27.4,27.4,0,0,0-3.387-.282c-17.216-1.835-20.321-10.3-23.143-24.837v-.282c.282-12.7,18.2-9.173,24.7-7.2a9.718,9.718,0,0,1,1.129.423h.141a16.427,16.427,0,0,0,18.486-7.056,16.653,16.653,0,0,0-5.221-22.861,16.357,16.357,0,0,0-21.026,2.963h0a.138.138,0,0,1-.141.141c-.282.423-.706.847-.988,1.27-10.725,13.124-23.849,13.265-27.941,7.2v.141a52.936,52.936,0,0,0-7.761-8.185h0c-11.713-10.725-16.793-21.45-7.056-39.372h0A24.146,24.146,0,0,0,148.682,25.8a23.605,23.605,0,1,0-45.722,5.927c6.209,19.333-.988,28.929-14.535,37.255h0A54.982,54.982,0,0,0,77.982,76.6h0C65.987,87.043,54.839,90.994,38.046,79.281a22.2,22.2,0,0,0-9.6-4.375,23.635,23.635,0,0,0-9.6,46.287,26.652,26.652,0,0,0,10.584-.141c19.9-4.092,28.647,4.092,35.42,18.345h0a55.663,55.663,0,0,0,77.615,26.671h0c13.265-6.774,20.885-7.338,32.739,5.362a21.689,21.689,0,0,0,2.4,2.681h0a22.6,22.6,0,0,0,5.927,4.234A23.822,23.822,0,0,0,215.289,167.48Z" transform="translate(0 0)"/>
      <path id="Path_4656" data-name="Path 4656" class="cls-2" d="M143.884,65.311c-4.939-8.044-5.362-16.934,1.552-29.494h0A24.146,24.146,0,0,0,148.823,25.8a23.675,23.675,0,0,0-47.133-4.516,23.462,23.462,0,0,0,1.27,10.443c6.209,19.333-.988,28.929-14.535,37.255h0A54.982,54.982,0,0,0,77.982,76.6h0C65.987,87.043,54.839,90.994,38.046,79.281a22.2,22.2,0,0,0-9.6-4.375,23.635,23.635,0,0,0-9.6,46.287,26.652,26.652,0,0,0,10.584-.141c19.9-4.092,28.647,4.092,35.42,18.345h0a55.346,55.346,0,0,0,22.861,25.683Z" transform="translate(0 0)"/>
      <ellipse id="Ellipse_798" data-name="Ellipse 798" class="cls-3" cx="9.455" cy="9.455" rx="9.455" ry="9.455" transform="matrix(0.489, -0.873, 0.873, 0.489, 189.389, 159.664)"/>
      <ellipse id="Ellipse_799" data-name="Ellipse 799" class="cls-3" cx="7.338" cy="7.338" rx="7.338" ry="7.338" transform="matrix(0.489, -0.873, 0.873, 0.489, 196.708, 86.946)"/>
      <ellipse id="Ellipse_800" data-name="Ellipse 800" class="cls-3" cx="4.798" cy="4.798" rx="4.798" ry="4.798" transform="matrix(0.489, -0.873, 0.873, 0.489, 138.017, 154.819)"/>
    </g>
    <g id="Group_19313" data-name="Group 19313" transform="translate(77.154 8.541)">
      <ellipse id="Ellipse_801" data-name="Ellipse 801" class="cls-1" cx="8.467" cy="8.467" rx="8.467" ry="8.467" transform="matrix(0.489, -0.873, 0.873, 0.489, 0, 14.775)"/>
      <path id="Path_4657" data-name="Path 4657" class="cls-4" d="M12.644,1.073A8.558,8.558,0,0,0,1.073,4.319,8.558,8.558,0,0,0,4.319,15.89Z" transform="translate(3.001 3.06)"/>
    </g>
    <g id="Group_19314" data-name="Group 19314" transform="translate(159.493 34.285)">
      <ellipse id="Ellipse_802" data-name="Ellipse 802" class="cls-1" cx="11.854" cy="11.854" rx="11.854" ry="11.854" transform="matrix(0.489, -0.873, 0.873, 0.489, 0, 20.685)"/>
      <path id="Path_4658" data-name="Path 4658" class="cls-5" d="M17.757,1.529A11.911,11.911,0,1,0,6.044,22.273Z" transform="translate(4.171 4.237)"/>
    </g>
    <g id="Group_19315" data-name="Group 19315" transform="translate(36.513 43.581)">
      <ellipse id="Ellipse_803" data-name="Ellipse 803" class="cls-1" cx="13.265" cy="13.265" rx="13.265" ry="13.265" transform="translate(0 23.137) rotate(-60.7)"/>
      <path id="Path_4659" data-name="Path 4659" class="cls-6" d="M19.791,1.665A13.385,13.385,0,0,0,1.728,6.745a13.261,13.261,0,0,0,5.08,18.063Z" transform="translate(4.744 4.824)"/>
    </g>
  </g>
</svg>
