<svg xmlns="http://www.w3.org/2000/svg" viewBox="397.257 941.396 1463.743 567.604">
  <defs>
    <style>
      .cls-1 {
        opacity: 0.16;
      }

      .cls-2 {
        fill: #ffb900;
      }

      .cls-3 {
        fill: #fff1d6;
      }

      .cls-4 {
        fill: #f0f;
      }

      .cls-5 {
        opacity: 0.9;
      }

      .cls-6 {
        fill: #050505;
        opacity: 0.2;
      }
    </style>
  </defs>
  <g id="orange_drip" data-name="orange drip" transform="translate(397.289 941.396)">
    <g id="Group_8" data-name="Group 8" transform="translate(-0.032)">
      <g id="Group_3" data-name="Group 3" transform="translate(974.867)">
        <g id="Group_1" data-name="Group 1" transform="translate(0.039)">
          <path id="Path_2" data-name="Path 2" class="cls-1" d="M798.9,0V343.788c8.176,17.819,22.941,33.334,50.031,33.488,63.454.461,61.013-71.431,61.013-71.431s-4.881-38.25,24.405-38.25,21.965,38.25,21.965,38.25l.732,243.785c0,9.831,6.467,17.819,14.277,17.819,7.932,0,14.277-7.988,14.277-17.819V377.276s-7.322-42.4,21.965-45.47,24.405,45.47,24.405,45.47.61,52.382,47.956,55.455c47.224,3.072,52.1-55.455,52.1-55.455s-4.881,80.033,58.573,82.952c63.454,3.072,56.132-82.952,56.132-82.952s-3.295-70.97,30.506-71.431a37.119,37.119,0,0,1,10.494,1.383L1287.127,0Z" transform="translate(-798.9)"/>
        </g>
        <g id="Group_2" data-name="Group 2">
          <path id="Path_3" data-name="Path 3" class="cls-2" d="M798.907,0V292.174s-3.661,84.795,59.793,85.256S919.713,306,919.713,306s-4.881-38.25,24.405-38.25S966.083,306,966.083,306l.732,243.785c0,9.831,6.467,17.819,14.277,17.819h0c7.932,0,14.277-7.988,14.277-17.819V377.276s-7.322-42.4,21.965-45.47,24.405,45.47,24.405,45.47.61,52.382,47.956,55.455c47.224,3.072,52.105-55.455,52.105-55.455s-4.881,80.033,58.572,82.952c63.454,3.072,56.132-82.952,56.132-82.952s-3.295-70.97,30.507-71.431h.732L1287.134,0Z" transform="translate(-798.868)"/>
        </g>
        <ellipse id="Ellipse_1" data-name="Ellipse 1" class="cls-3" cx="9.03" cy="11.367" rx="9.03" ry="11.367" transform="translate(415.172 416.447)"/>
        <ellipse id="Ellipse_2" data-name="Ellipse 2" class="cls-3" cx="5.735" cy="7.22" rx="5.735" ry="7.22" transform="translate(433.232 398.475)"/>
        <ellipse id="Ellipse_3" data-name="Ellipse 3" class="cls-3" cx="6.955" cy="8.602" rx="6.955" ry="8.602" transform="translate(301.81 404.005)"/>
        <ellipse id="Ellipse_4" data-name="Ellipse 4" class="cls-3" cx="4.393" cy="5.53" rx="4.393" ry="5.53" transform="translate(315.599 390.179)"/>
        <ellipse id="Ellipse_5" data-name="Ellipse 5" class="cls-3" cx="12.569" cy="15.669" rx="12.569" ry="15.669" transform="translate(63.981 328.58)"/>
        <ellipse id="Ellipse_6" data-name="Ellipse 6" class="cls-3" cx="7.932" cy="9.985" rx="7.932" ry="9.985" transform="translate(89.118 303.541)"/>
        <ellipse id="Ellipse_7" data-name="Ellipse 7" class="cls-3" cx="4.027" cy="5.069" rx="4.027" ry="5.069" transform="translate(181.858 537.341)"/>
      </g>
      <g id="Group_4" data-name="Group 4" transform="translate(0.039)">
        <path id="Path_4" data-name="Path 4" class="cls-1" d="M0,0V343.788c8.176,17.819,22.941,33.334,50.031,33.488,63.454.461,61.013-71.431,61.013-71.431s-4.881-38.25,24.405-38.25,21.965,38.25,21.965,38.25l.732,243.785c0,9.831,6.467,17.819,14.277,17.819,7.932,0,14.277-7.988,14.277-17.819V377.276s-7.322-42.4,21.965-45.47,24.405,45.47,24.405,45.47.61,52.382,47.956,55.455c47.224,3.072,52.105-55.455,52.105-55.455s-4.881,80.033,58.573,82.952c63.454,3.072,56.132-82.952,56.132-82.952s-3.295-70.97,30.507-71.431c44.418-.614,37.828,71.431,37.828,71.431V501.549c0,10.907,7.077,19.816,15.863,19.816s15.863-8.91,15.863-19.816V377.276s-.732-35.331,20.378-37.328c32.581-3.072,33.313,37.328,33.313,37.328s1.586,64.825,64.308,66.668c38.926,1.229,55.4-21.66,62.355-41.015a83.633,83.633,0,0,0,4.271-33.949c-1.342-18.587-1.586-63.135,25.259-63.135s22.087,71.431,22.087,71.431V547.634c0,10.907,7.078,19.816,15.741,19.816s15.741-8.91,15.741-19.816V377.276s-4.027-38.25,21.965-39.325c24.161-.922,28.432,26.422,29.164,36.1a73.924,73.924,0,0,0,2.074,12.9c4.027,15.515,16.107,44.394,49.3,45.931,52.471,2.3,52.471-55.455,52.471-55.455V0Z"/>
      </g>
      <path id="Path_5" data-name="Path 5" class="cls-2" d="M.007,0V292.174S-3.654,376.969,59.8,377.429,120.813,306,120.813,306s-4.881-38.25,24.405-38.25S167.183,306,167.183,306l.732,243.785c0,9.831,6.467,17.819,14.277,17.819h0c7.932,0,14.277-7.988,14.277-17.819V377.276s-7.322-42.4,21.965-45.47,24.405,45.47,24.405,45.47.61,52.382,47.956,55.455C338.02,435.8,342.9,377.276,342.9,377.276s-4.881,80.033,58.573,82.952c63.454,3.072,56.132-82.952,56.132-82.952s-3.295-70.97,30.507-71.431c44.417-.614,37.828,71.431,37.828,71.431V501.549c0,10.907,7.078,19.816,15.863,19.816h0c8.786,0,15.863-8.91,15.863-19.816V377.276s-.732-35.331,20.378-37.328c32.581-3.072,33.313,37.328,33.313,37.328s1.586,64.825,64.308,66.668c38.926,1.229,55.4-21.66,62.355-41.015a83.634,83.634,0,0,0,4.271-33.949c-1.342-18.587-1.586-63.135,25.259-63.135s22.087,71.431,22.087,71.431V547.634c0,10.907,7.078,19.816,15.741,19.816h0c8.664,0,15.741-8.91,15.741-19.816V377.276s-4.027-38.25,21.965-39.325c24.161-.922,28.432,26.422,29.164,36.1a73.907,73.907,0,0,0,2.075,12.9c4.027,15.515,16.107,44.394,49.3,45.931,52.471,2.3,52.471-55.455,52.471-55.455V0Z" transform="translate(0.032)"/>
      <g id="Group_5" data-name="Group 5">
        <path id="Path_6" data-name="Path 6" class="cls-4" d="M286.514,232.4s-1.1,2.458-5.491,20.277c-1.83,39.172,15.863,80.8,56.742,83.259a50.709,50.709,0,0,0,6.833,0C281.633,331.481,286.514,232.4,286.514,232.4Z" transform="translate(61.91 124.599)"/>
        <path id="Path_7" data-name="Path 7" class="cls-4" d="M444.313,394.906V270.633s6.589-72.2-37.828-71.43c-.976,0-1.83.154-2.685.154,39.293,4.148,33.191,71.123,33.191,71.123V394.753c0,10.907,7.077,19.816,15.863,19.816a10.188,10.188,0,0,0,3.661-.615C449.56,412.111,444.313,404.277,444.313,394.906Z" transform="translate(88.981 106.797)"/>
        <path id="Path_8" data-name="Path 8" class="cls-4" d="M148.358,456.235l-.732-243.785s7.322-38.25-21.965-38.25a25.911,25.911,0,0,0-3.661.307c25.015,3.072,18.3,37.943,18.3,37.943l.732,243.785c0,9.831,6.467,17.819,14.277,17.819a10.189,10.189,0,0,0,3.661-.614C152.995,471.443,148.48,464.53,148.358,456.235Z" transform="translate(26.911 93.395)"/>
        <path id="Path_9" data-name="Path 9" class="cls-4" d="M7.329,292.174V0H.007V292.174S-3.654,376.969,59.8,377.429a39.7,39.7,0,0,0,4.271-.154C3.79,374.05,7.329,292.174,7.329,292.174Z" transform="translate(0.032)"/>
        <path id="Path_10" data-name="Path 10" class="cls-4" d="M513.079,258.686s-.854-40.4-33.313-37.328H479.4c25.748,2.919,26.358,37.175,26.358,37.175s1.586,64.825,64.308,66.668h6.467C514.666,322.9,513.079,258.686,513.079,258.686Z" transform="translate(105.633 118.589)"/>
        <path id="Path_11" data-name="Path 11" class="cls-4" d="M209.625,261.519s4.881-48.542-24.405-45.47c-.366,0-.854.154-1.22.154,22.453,3.84,18.3,45.316,18.3,45.316s.61,52.382,47.956,55.455a54.355,54.355,0,0,0,7.078,0C210.358,313.9,209.625,261.519,209.625,261.519Z" transform="translate(40.567 115.757)"/>
        <path id="Path_12" data-name="Path 12" class="cls-4" d="M657.813,440.888V270.53s4.759-71.43-22.087-71.43a16.483,16.483,0,0,0-4.027.461c23.185,5.684,18.792,71.123,18.792,71.123V441.042c0,10.907,7.077,19.816,15.741,19.816a10.188,10.188,0,0,0,3.661-.615C663.061,458.093,657.813,450.259,657.813,440.888Z" transform="translate(139.179 106.745)"/>
        <path id="Path_13" data-name="Path 13" class="cls-4" d="M728.679,269.011a73.908,73.908,0,0,1-2.075-12.9c-.732-9.678-5-37.021-29.164-36.1-.854,0-1.708.154-2.441.154,19.89,2.611,23.551,26.882,24.283,35.792a73.913,73.913,0,0,0,2.074,12.9c4.027,15.515,16.107,44.394,49.3,45.931a48.889,48.889,0,0,0,6.711,0C744.543,313.1,732.706,284.372,728.679,269.011Z" transform="translate(153.121 117.943)"/>
      </g>
      <ellipse id="Ellipse_8" data-name="Ellipse 8" class="cls-3" cx="12.569" cy="15.669" rx="12.569" ry="15.669" transform="translate(682.166 382.345)"/>
      <ellipse id="Ellipse_9" data-name="Ellipse 9" class="cls-3" cx="7.932" cy="9.985" rx="7.932" ry="9.985" transform="translate(707.181 357.46)"/>
      <ellipse id="Ellipse_10" data-name="Ellipse 10" class="cls-3" cx="4.027" cy="5.069" rx="4.027" ry="5.069" transform="translate(541.469 491.411)"/>
      <ellipse id="Ellipse_11" data-name="Ellipse 11" class="cls-3" cx="4.027" cy="5.069" rx="4.027" ry="5.069" transform="translate(805.168 538.417)"/>
      <ellipse id="Ellipse_12" data-name="Ellipse 12" class="cls-3" cx="9.762" cy="12.289" rx="9.762" ry="12.289" transform="translate(930.489 389.411)"/>
      <ellipse id="Ellipse_13" data-name="Ellipse 13" class="cls-3" cx="6.223" cy="7.834" rx="6.223" ry="7.834" transform="translate(950.013 369.902)"/>
      <ellipse id="Ellipse_14" data-name="Ellipse 14" class="cls-3" cx="9.03" cy="11.367" rx="9.03" ry="11.367" transform="translate(415.172 416.447)"/>
      <ellipse id="Ellipse_15" data-name="Ellipse 15" class="cls-3" cx="5.735" cy="7.22" rx="5.735" ry="7.22" transform="translate(433.232 398.475)"/>
      <ellipse id="Ellipse_16" data-name="Ellipse 16" class="cls-3" cx="6.955" cy="8.602" rx="6.955" ry="8.602" transform="translate(301.81 404.005)"/>
      <ellipse id="Ellipse_17" data-name="Ellipse 17" class="cls-3" cx="4.393" cy="5.53" rx="4.393" ry="5.53" transform="translate(315.721 390.179)"/>
      <ellipse id="Ellipse_18" data-name="Ellipse 18" class="cls-3" cx="12.569" cy="15.669" rx="12.569" ry="15.669" transform="translate(63.981 328.58)"/>
      <ellipse id="Ellipse_19" data-name="Ellipse 19" class="cls-3" cx="7.932" cy="9.985" rx="7.932" ry="9.985" transform="translate(89.118 303.541)"/>
      <ellipse id="Ellipse_20" data-name="Ellipse 20" class="cls-3" cx="4.027" cy="5.069" rx="4.027" ry="5.069" transform="translate(181.858 537.341)"/>
      <g id="Group_6" data-name="Group 6" transform="translate(466.423 91.4)">
        <path id="Path_14" data-name="Path 14" class="cls-4" d="M392.9,174.056s13.911,51.461,66.382,55.608c25.015,2,42.587-10.6,54.18-24.271,10.372-12.289,16.6-28.726,18.67-46.391,1.83-15.669,8.542-37.789,31.849-35.792,27.944,2.3,31.361,20.891,31.361,29.033a44.556,44.556,0,0,0,1.952,13.364c4.637,14.9,19.036,42.244,62.233,43.012,59.671,1.229,56.01-46.7,56.01-46.7S712,119.83,745.312,122.9c33.435,3.072,28.676,35.946,28.676,35.946s0,72.813,59.671,70.816,54.668-67.744,54.668-67.744V63.3L392.9,91.1Z" transform="translate(-379.843 -57.463)"/>
        <path id="Path_15" data-name="Path 15" class="cls-2" d="M382.322,161.192s31.971,60.524,84.442,64.825c25.015,2,42.587-10.6,54.18-24.271,10.372-12.289,16.6-28.726,18.67-46.391,1.83-15.669,8.542-37.789,31.849-35.792,27.944,2.3,31.361,20.892,31.361,29.033a44.56,44.56,0,0,0,1.952,13.364c4.637,14.9,19.036,42.244,62.233,43.012,59.671,1.229,56.01-46.7,56.01-46.7s-3.539-42.09,29.774-39.018c33.435,3.072,28.676,35.946,28.676,35.946s0,72.813,59.671,70.816,54.668-67.744,54.668-67.744V59.5L382.2,79.47v81.723Z" transform="translate(-382.2 -59.5)"/>
        <ellipse id="Ellipse_21" data-name="Ellipse 21" class="cls-3" cx="5.247" cy="6.605" rx="5.247" ry="6.605" transform="translate(319.831 97.084)"/>
        <ellipse id="Ellipse_22" data-name="Ellipse 22" class="cls-3" cx="7.444" cy="9.37" rx="7.444" ry="9.37" transform="translate(474.804 123.813)"/>
        <ellipse id="Ellipse_23" data-name="Ellipse 23" class="cls-3" cx="5.247" cy="6.605" rx="5.247" ry="6.605" transform="translate(489.691 97.084)"/>
        <ellipse id="Ellipse_24" data-name="Ellipse 24" class="cls-3" cx="7.444" cy="9.37" rx="7.444" ry="9.37" transform="translate(102.502 123.813)"/>
      </g>
      <g id="Group_7" data-name="Group 7" transform="translate(1123.778 267.595)">
        <path id="Path_16" data-name="Path 16" class="cls-4" d="M947.258,456.235l-.732-243.785s7.322-38.25-21.965-38.25a25.906,25.906,0,0,0-3.661.307c25.015,3.072,18.3,37.943,18.3,37.943l.732,243.785c0,9.831,6.467,17.819,14.277,17.819a10.189,10.189,0,0,0,3.661-.614C951.773,471.443,947.258,464.53,947.258,456.235Z" transform="translate(-920.9 -174.2)"/>
        <path id="Path_17" data-name="Path 17" class="cls-4" d="M1008.526,261.519s4.881-48.542-24.405-45.47c-.366,0-.854.154-1.22.154,22.453,3.84,18.3,45.316,18.3,45.316s.61,52.382,47.956,55.455a54.36,54.36,0,0,0,7.078,0C1009.136,313.9,1008.526,261.519,1008.526,261.519Z" transform="translate(-907.244 -151.838)"/>
      </g>
    </g>
    <g id="Group_10" data-name="Group 10" transform="translate(768.409 492.969)">
      <g id="Group_9" data-name="Group 9" class="cls-5" transform="translate(0 0)">
        <path id="Path_18" data-name="Path 18" class="cls-6" d="M.684,0c.348-.029.606.283.578.7a.839.839,0,0,1-.682.8C.232,1.527-.027,1.216,0,.8A.839.839,0,0,1,.684,0Z" transform="matrix(0.936, -0.353, 0.353, 0.936, 2.59, 0.447)"/>
        <path id="Path_19" data-name="Path 19" class="cls-6" d="M.684,0c.348-.029.606.283.578.7a.839.839,0,0,1-.682.8C.232,1.527-.027,1.216,0,.8A.839.839,0,0,1,.684,0Z" transform="matrix(0.936, -0.353, 0.353, 0.936, 0, 19.499)"/>
        <path id="Path_20" data-name="Path 20" class="cls-6" d="M.684,0c.348-.029.606.283.578.7a.839.839,0,0,1-.682.8C.232,1.527-.027,1.216,0,.8A.839.839,0,0,1,.684,0Z" transform="translate(1.824 13.626) rotate(-20.708)"/>
        <path id="Path_21" data-name="Path 21" class="cls-6" d="M.685,0c.348-.029.607.283.578.7a.84.84,0,0,1-.682.8C.232,1.527-.027,1.216,0,.8A.84.84,0,0,1,.685,0Z" transform="translate(0.476 5.607) rotate(-20.757)"/>
      </g>
    </g>
    <path id="Path_22" data-name="Path 22" class="cls-4" d="M1085.514,232.1s-1.1,2.458-5.491,20.277c-1.83,39.172,15.864,80.8,56.742,83.259a50.707,50.707,0,0,0,6.833,0C1080.633,331.181,1085.514,232.1,1085.514,232.1Z" transform="translate(237.867 124.438)"/>
  </g>
</svg>
