<svg xmlns="http://www.w3.org/2000/svg" xmlns:xlink="http://www.w3.org/1999/xlink" viewBox="503 976 1670 427">
  <defs>
    <style>
      .cls-1 {
        clip-path: url(#clip-Web_1920_1);
      }

      .cls-2 {
        fill: #212121;
      }

      .cls-3 {
        opacity: 0.16;
      }

      .cls-4 {
        fill: #f0f;
      }

      .cls-5 {
        fill: #ffc947;
      }

      .cls-6 {
        fill: #fbb900;
      }

      .cls-7 {
        opacity: 0.9;
      }

      .cls-8 {
        fill: #050505;
        opacity: 0.2;
      }
    </style>
    <clipPath id="clip-Web_1920_1">
      <rect x="503" y="976" width="1670" height="427"/>
    </clipPath>
  </defs>
  <g id="Web_1920_1" data-name="Web 1920 – 1" class="cls-1">
    <path id="Path_1" data-name="Path 1" class="cls-2" d="M1440-1800h0Z" transform="translate(644 2779)"/>
    <g id="purple_drip" data-name="purple drip" transform="translate(1289.032 938)">
      <g id="Group_8" data-name="Group 8" transform="translate(-0.032)">
        <g id="Group_3" data-name="Group 3">
          <g id="Group_1" data-name="Group 1" transform="translate(0)">
            <path id="Path_2" data-name="Path 2" class="cls-3" d="M1093.108,0V191.76c-4.921,9.939-13.807,18.593-30.111,18.679-38.19.257-36.721-39.843-36.721-39.843s2.938-21.335-14.688-21.335-13.22,21.335-13.22,21.335l-.441,135.98c0,5.484-3.892,9.939-8.593,9.939-4.774,0-8.593-4.456-8.593-9.939V210.44s4.406-23.649-13.22-25.362-14.688,25.362-14.688,25.362-.367,29.218-28.863,30.932c-28.422,1.714-31.36-30.932-31.36-30.932s2.938,44.641-35.252,46.269c-38.19,1.714-33.783-46.269-33.783-46.269s1.983-39.586-18.36-39.843a24,24,0,0,0-6.316.771L799.267,0Z" transform="translate(-798.9)"/>
          </g>
          <g id="Group_2" data-name="Group 2">
            <path id="Path_3" data-name="Path 3" class="cls-4" d="M1093.076,0V162.971s2.2,47.3-35.986,47.555-36.721-39.843-36.721-39.843,2.938-21.335-14.688-21.335-13.219,21.335-13.219,21.335l-.441,135.98c0,5.484-3.892,9.939-8.593,9.939h0c-4.774,0-8.593-4.456-8.593-9.939V210.44s4.407-23.649-13.22-25.362-14.688,25.362-14.688,25.362-.367,29.218-28.863,30.932c-28.422,1.714-31.36-30.932-31.36-30.932s2.938,44.641-35.252,46.269c-38.19,1.714-33.783-46.269-33.783-46.269s1.983-39.586-18.36-39.843h-.441L799.235,0Z" transform="translate(-798.868)"/>
          </g>
          <ellipse id="Ellipse_1" data-name="Ellipse 1" class="cls-5" cx="5.435" cy="6.341" rx="5.435" ry="6.341" transform="translate(33.49 232.289)"/>
          <ellipse id="Ellipse_2" data-name="Ellipse 2" class="cls-5" cx="3.452" cy="4.027" rx="3.452" ry="4.027" transform="translate(26.586 222.264)"/>
          <ellipse id="Ellipse_3" data-name="Ellipse 3" class="cls-5" cx="4.186" cy="4.798" rx="4.186" ry="4.798" transform="translate(104.214 225.349)"/>
          <ellipse id="Ellipse_4" data-name="Ellipse 4" class="cls-5" cx="2.644" cy="3.085" rx="2.644" ry="3.085" transform="translate(99 217.637)"/>
          <ellipse id="Ellipse_5" data-name="Ellipse 5" class="cls-5" cx="7.565" cy="8.74" rx="7.565" ry="8.74" transform="translate(240.595 183.278)"/>
          <ellipse id="Ellipse_6" data-name="Ellipse 6" class="cls-5" cx="4.774" cy="5.569" rx="4.774" ry="5.569" transform="translate(231.048 169.311)"/>
          <ellipse id="Ellipse_7" data-name="Ellipse 7" class="cls-5" cx="2.424" cy="2.828" rx="2.424" ry="2.828" transform="translate(179.932 299.722)"/>
        </g>
        <g id="Group_4" data-name="Group 4" transform="translate(299.349)">
          <path id="Path_4" data-name="Path 4" class="cls-3" d="M581.586,0V191.76c-4.921,9.939-13.807,18.593-30.111,18.679-38.19.257-36.721-39.843-36.721-39.843s2.938-21.335-14.688-21.335-13.22,21.335-13.22,21.335l-.441,135.98c0,5.484-3.892,9.939-8.593,9.939-4.774,0-8.593-4.456-8.593-9.939V210.44s4.406-23.649-13.22-25.362-14.688,25.362-14.688,25.362-.367,29.218-28.863,30.932c-28.422,1.714-31.36-30.932-31.36-30.932s2.938,44.641-35.252,46.269c-38.19,1.714-33.783-46.269-33.783-46.269s1.983-39.586-18.36-39.843c-26.733-.343-22.767,39.843-22.767,39.843v69.318c0,6.084-4.26,11.053-9.547,11.053s-9.547-4.97-9.547-11.053V210.44s.441-19.707-12.265-20.821c-19.609-1.714-20.05,20.821-20.05,20.821s-.955,36.159-38.7,37.187c-23.428.685-33.343-12.081-37.529-22.878a43.475,43.475,0,0,1-2.57-18.936c.808-10.368.955-35.216-15.2-35.216s-13.293,39.843-13.293,39.843v95.023c0,6.084-4.26,11.053-9.474,11.053s-9.474-4.97-9.474-11.053V210.44S95.695,189.1,80.052,188.5C65.51,187.99,62.94,203.242,62.5,208.64a38.466,38.466,0,0,1-1.248,7.2c-2.424,8.654-9.694,24.763-29.671,25.619C0,242.742,0,210.525,0,210.525V0Z"/>
        </g>
        <path id="Path_5" data-name="Path 5" class="cls-4" d="M587.429,0V162.971s2.2,47.3-35.987,47.555-36.721-39.843-36.721-39.843,2.938-21.335-14.688-21.335-13.22,21.335-13.22,21.335l-.441,135.98c0,5.484-3.892,9.939-8.593,9.939h0c-4.774,0-8.593-4.456-8.593-9.939V210.44s4.406-23.649-13.22-25.362S441.28,210.44,441.28,210.44s-.367,29.218-28.863,30.932c-28.422,1.714-31.36-30.932-31.36-30.932s2.938,44.641-35.252,46.269c-38.19,1.714-33.783-46.269-33.783-46.269s1.983-39.586-18.36-39.843c-26.733-.343-22.767,39.843-22.767,39.843v69.318c0,6.084-4.26,11.053-9.547,11.053h0c-5.288,0-9.547-4.97-9.547-11.053V210.44s.441-19.707-12.265-20.821c-19.609-1.714-20.05,20.821-20.05,20.821s-.955,36.159-38.7,37.187c-23.428.685-33.343-12.081-37.529-22.878a43.475,43.475,0,0,1-2.57-18.936c.808-10.368.955-35.216-15.2-35.216s-13.293,39.843-13.293,39.843v95.023c0,6.084-4.26,11.053-9.474,11.053h0c-5.214,0-9.474-4.97-9.474-11.053V210.44S95.663,189.1,80.02,188.5c-14.542-.514-17.112,14.738-17.553,20.136a38.466,38.466,0,0,1-1.249,7.2c-2.424,8.654-9.694,24.763-29.671,25.619-31.58,1.285-31.58-30.932-31.58-30.932V0Z" transform="translate(293.506)"/>
        <g id="Group_5" data-name="Group 5" transform="translate(320.941)">
          <path id="Path_6" data-name="Path 6" class="cls-6" d="M315.853,232.4s.661,1.371,3.3,11.31c1.1,21.849-9.547,45.07-34.15,46.441a32.924,32.924,0,0,1-4.113,0C318.791,287.666,315.853,232.4,315.853,232.4Z" transform="translate(34.464 -33.271)"/>
          <path id="Path_7" data-name="Path 7" class="cls-6" d="M411.144,308.361V239.042s-3.966-40.271,22.767-39.843c.588,0,1.1.086,1.616.086-23.648,2.313-19.976,39.672-19.976,39.672v69.318c0,6.084-4.26,11.053-9.547,11.053a6.571,6.571,0,0,1-2.2-.343C407.986,317.957,411.144,313.587,411.144,308.361Z" transform="translate(-172.091 -28.517)"/>
          <path id="Path_8" data-name="Path 8" class="cls-6" d="M128.389,331.515l.441-135.98S124.424,174.2,142.05,174.2a16.8,16.8,0,0,1,2.2.171c-15.056,1.714-11.016,21.164-11.016,21.164l-.441,135.98c0,5.484-3.892,9.939-8.593,9.939a6.571,6.571,0,0,1-2.2-.343C125.6,340,128.316,336.142,128.389,331.515Z" transform="translate(326.142 -24.939)"/>
          <path id="Path_9" data-name="Path 9" class="cls-6" d="M34.118,162.971V0h4.407V162.971s2.2,47.3-35.986,47.555c-.881,0-1.689,0-2.57-.086C36.248,208.64,34.118,162.971,34.118,162.971Z" transform="translate(521.469)"/>
          <path id="Path_10" data-name="Path 10" class="cls-6" d="M517.59,242.106s.514-22.535,20.05-20.821h.22C522.363,222.912,522,242.02,522,242.02s-.955,36.159-38.7,37.187H479.4C516.635,277.921,517.59,242.106,517.59,242.106Z" transform="translate(-329.946 -31.666)"/>
          <path id="Path_11" data-name="Path 11" class="cls-6" d="M212.716,241.349s-2.938-27.076,14.688-25.362c.22,0,.514.086.734.086-13.513,2.142-11.016,25.277-11.016,25.277s-.367,29.218-28.863,30.932a35.285,35.285,0,0,1-4.26,0C212.275,270.568,212.716,241.349,212.716,241.349Z" transform="translate(196.722 -30.91)"/>
          <path id="Path_12" data-name="Path 12" class="cls-6" d="M638.971,333.966V238.943S636.107,199.1,652.264,199.1a10.668,10.668,0,0,1,2.424.257c-13.954,3.17-11.31,39.672-11.31,39.672v95.023c0,6.084-4.26,11.053-9.474,11.053a6.571,6.571,0,0,1-2.2-.343C635.813,343.563,638.971,339.193,638.971,333.966Z" transform="translate(-558.625 -28.503)"/>
          <path id="Path_13" data-name="Path 13" class="cls-6" d="M724.3,247.331a38.456,38.456,0,0,0,1.249-7.2c.441-5.4,3.011-20.65,17.553-20.136.514,0,1.028.086,1.469.086-11.971,1.457-14.174,14.995-14.615,19.964a38.456,38.456,0,0,1-1.249,7.2c-2.424,8.654-9.694,24.763-29.67,25.619a31.742,31.742,0,0,1-4.039,0C714.756,271.922,721.88,255.9,724.3,247.331Z" transform="translate(-695 -31.493)"/>
        </g>
        <ellipse id="Ellipse_8" data-name="Ellipse 8" class="cls-5" cx="7.565" cy="8.74" rx="7.565" ry="8.74" transform="translate(455.266 213.267)"/>
        <ellipse id="Ellipse_9" data-name="Ellipse 9" class="cls-5" cx="4.774" cy="5.569" rx="4.774" ry="5.569" transform="translate(445.792 199.386)"/>
        <ellipse id="Ellipse_10" data-name="Ellipse 10" class="cls-5" cx="2.424" cy="2.828" rx="2.424" ry="2.828" transform="translate(550.226 274.103)"/>
        <ellipse id="Ellipse_11" data-name="Ellipse 11" class="cls-5" cx="2.424" cy="2.828" rx="2.424" ry="2.828" transform="translate(391.518 300.322)"/>
        <ellipse id="Ellipse_12" data-name="Ellipse 12" class="cls-5" cx="5.875" cy="6.855" rx="5.875" ry="6.855" transform="translate(309.19 217.209)"/>
        <ellipse id="Ellipse_13" data-name="Ellipse 13" class="cls-5" cx="3.746" cy="4.37" rx="3.746" ry="4.37" transform="translate(301.699 206.327)"/>
        <ellipse id="Ellipse_14" data-name="Ellipse 14" class="cls-5" cx="5.435" cy="6.341" rx="5.435" ry="6.341" transform="translate(620.216 232.289)"/>
        <ellipse id="Ellipse_15" data-name="Ellipse 15" class="cls-5" cx="3.452" cy="4.027" rx="3.452" ry="4.027" transform="translate(613.313 222.264)"/>
        <ellipse id="Ellipse_16" data-name="Ellipse 16" class="cls-5" cx="4.186" cy="4.798" rx="4.186" ry="4.798" transform="translate(690.941 225.349)"/>
        <ellipse id="Ellipse_17" data-name="Ellipse 17" class="cls-5" cx="2.644" cy="3.085" rx="2.644" ry="3.085" transform="translate(685.653 217.637)"/>
        <ellipse id="Ellipse_18" data-name="Ellipse 18" class="cls-5" cx="7.565" cy="8.74" rx="7.565" ry="8.74" transform="translate(827.322 183.278)"/>
        <ellipse id="Ellipse_19" data-name="Ellipse 19" class="cls-5" cx="4.774" cy="5.569" rx="4.774" ry="5.569" transform="translate(817.775 169.311)"/>
        <ellipse id="Ellipse_20" data-name="Ellipse 20" class="cls-5" cx="2.424" cy="2.828" rx="2.424" ry="2.828" transform="translate(766.659 299.722)"/>
        <g id="Group_6" data-name="Group 6" transform="translate(291.061 50.982)">
          <path id="Path_14" data-name="Path 14" class="cls-6" d="M691.136,125.078s-8.372,28.7-39.952,31.018c-15.056,1.114-25.631-5.912-32.608-13.538-6.243-6.855-9.988-16.023-11.237-25.877-1.1-8.74-5.141-21.078-19.168-19.964C571.352,98,569.3,108.37,569.3,112.911a23.173,23.173,0,0,1-1.175,7.455c-2.791,8.311-11.457,23.563-37.455,23.991-35.913.685-33.71-26.048-33.71-26.048s2.13-23.477-17.92-21.764c-20.123,1.714-17.259,20.05-17.259,20.05s0,40.614-35.913,39.5-32.9-37.787-32.9-37.787V63.3L691.136,78.809Z" transform="translate(-389.815 -60.044)"/>
          <path id="Path_15" data-name="Path 15" class="cls-4" d="M691.305,116.223s-19.242,33.759-50.822,36.159c-15.056,1.114-25.631-5.912-32.608-13.538-6.243-6.855-9.988-16.023-11.237-25.877-1.1-8.74-5.141-21.078-19.168-19.964C560.652,94.288,558.6,104.655,558.6,109.2a23.173,23.173,0,0,1-1.175,7.454c-2.791,8.311-11.457,23.563-37.455,23.991-35.913.685-33.71-26.048-33.71-26.048s2.13-23.477-17.92-21.764c-20.123,1.714-17.259,20.05-17.259,20.05s0,40.614-35.913,39.5-32.9-37.787-32.9-37.787V59.5L691.379,70.639v45.584Z" transform="translate(-382.2 -59.5)"/>
          <ellipse id="Ellipse_21" data-name="Ellipse 21" class="cls-5" cx="3.158" cy="3.684" rx="3.158" ry="3.684" transform="translate(110.372 54.152)"/>
          <ellipse id="Ellipse_22" data-name="Ellipse 22" class="cls-5" cx="4.48" cy="5.227" rx="4.48" ry="5.227" transform="translate(14.457 69.061)"/>
          <ellipse id="Ellipse_23" data-name="Ellipse 23" class="cls-5" cx="3.158" cy="3.684" rx="3.158" ry="3.684" transform="translate(8.141 54.152)"/>
          <ellipse id="Ellipse_24" data-name="Ellipse 24" class="cls-5" cx="4.48" cy="5.227" rx="4.48" ry="5.227" transform="translate(238.528 69.061)"/>
        </g>
        <g id="Group_7" data-name="Group 7" transform="translate(114.936 149.261)">
          <path id="Path_16" data-name="Path 16" class="cls-6" d="M927.289,331.516l.441-135.98S923.324,174.2,940.95,174.2a16.8,16.8,0,0,1,2.2.171c-15.056,1.714-11.016,21.164-11.016,21.164l-.441,135.98c0,5.484-3.892,9.939-8.593,9.939a6.57,6.57,0,0,1-2.2-.343C924.572,340,927.289,336.142,927.289,331.516Z" transform="translate(-853.48 -174.2)"/>
          <path id="Path_17" data-name="Path 17" class="cls-6" d="M1011.616,241.349s-2.938-27.076,14.688-25.362c.22,0,.514.086.734.086-13.513,2.142-11.016,25.277-11.016,25.277s-.367,29.218-28.863,30.932a35.284,35.284,0,0,1-4.26,0C1011.249,270.568,1011.616,241.349,1011.616,241.349Z" transform="translate(-982.9 -180.171)"/>
        </g>
      </g>
      <g id="Group_10" data-name="Group 10" transform="translate(415.864 274.961)">
        <g id="Group_9" data-name="Group 9" class="cls-7" transform="translate(0 0)">
          <path id="Path_18" data-name="Path 18" class="cls-8" d="M.4.842A.354.354,0,0,0,.75.442.453.453,0,0,0,.355,0,.354.354,0,0,0,0,.4.453.453,0,0,0,.4.842Z" transform="translate(0.702 1.054) rotate(-159.305)"/>
          <path id="Path_19" data-name="Path 19" class="cls-8" d="M.4.842A.354.354,0,0,0,.75.442.453.453,0,0,0,.355,0,.354.354,0,0,0,0,.4.453.453,0,0,0,.4.842Z" transform="translate(2.261 11.681) rotate(-159.305)"/>
          <path id="Path_20" data-name="Path 20" class="cls-8" d="M.4.842A.354.354,0,0,0,.75.442.453.453,0,0,0,.355,0,.354.354,0,0,0,0,.4.453.453,0,0,0,.4.842Z" transform="translate(1.163 8.404) rotate(-159.292)"/>
          <path id="Path_21" data-name="Path 21" class="cls-8" d="M.4.842A.354.354,0,0,0,.75.442.453.453,0,0,0,.355,0,.354.354,0,0,0,0,.4.453.453,0,0,0,.4.842Z" transform="matrix(-0.935, -0.354, 0.354, -0.935, 1.974, 3.932)"/>
        </g>
      </g>
      <path id="Path_22" data-name="Path 22" class="cls-6" d="M1114.853,232.1s.661,1.371,3.3,11.31c1.1,21.849-9.547,45.07-34.15,46.441a32.925,32.925,0,0,1-4.113,0C1117.791,287.366,1114.853,232.1,1114.853,232.1Z" transform="translate(-1030.427 -33.228)"/>
    </g>
    <g id="purple_drip-2" data-name="purple drip" transform="translate(503.074 975.265)">
      <g id="Group_18" data-name="Group 18" transform="translate(-0.032)">
        <g id="Group_13" data-name="Group 13" transform="translate(641.34)">
          <g id="Group_11" data-name="Group 11" transform="translate(0.026)">
            <path id="Path_23" data-name="Path 23" class="cls-3" d="M798.9,0V233.333c5.379,12.094,15.092,22.624,32.914,22.729,41.745.313,40.139-48.481,40.139-48.481s-3.211-25.961,16.056-25.961,14.45,25.961,14.45,25.961l.482,165.46c0,6.673,4.255,12.094,9.393,12.094,5.218,0,9.392-5.422,9.392-12.094V256.062s-4.817-28.776,14.45-30.861,16.056,30.861,16.056,30.861.4,35.553,31.549,37.638c31.067,2.085,34.279-37.638,34.279-37.638s-3.211,54.319,38.534,56.3c41.744,2.085,36.928-56.3,36.928-56.3s-2.167-48.168,20.069-48.481a23.718,23.718,0,0,1,6.9.938L1120.092,0Z" transform="translate(-798.9)"/>
          </g>
          <g id="Group_12" data-name="Group 12">
            <path id="Path_24" data-name="Path 24" class="cls-4" d="M798.894,0V198.3s-2.408,57.551,39.336,57.864,40.139-48.481,40.139-48.481-3.211-25.961,16.056-25.961,14.45,25.961,14.45,25.961l.482,165.46c0,6.673,4.255,12.094,9.392,12.094h0c5.218,0,9.393-5.422,9.393-12.094V256.062s-4.817-28.776,14.45-30.861,16.056,30.861,16.056,30.861.4,35.553,31.549,37.638c31.068,2.085,34.279-37.638,34.279-37.638s-3.211,54.319,38.533,56.3c41.745,2.085,36.928-56.3,36.928-56.3s-2.167-48.168,20.069-48.481h.482L1120.085,0Z" transform="translate(-798.868)"/>
          </g>
          <ellipse id="Ellipse_25" data-name="Ellipse 25" class="cls-5" cx="5.941" cy="7.715" rx="5.941" ry="7.715" transform="translate(273.131 282.648)"/>
          <ellipse id="Ellipse_26" data-name="Ellipse 26" class="cls-5" cx="3.773" cy="4.9" rx="3.773" ry="4.9" transform="translate(285.012 270.45)"/>
          <ellipse id="Ellipse_27" data-name="Ellipse 27" class="cls-5" cx="4.576" cy="5.839" rx="4.576" ry="5.839" transform="translate(198.553 274.203)"/>
          <ellipse id="Ellipse_28" data-name="Ellipse 28" class="cls-5" cx="2.89" cy="3.753" rx="2.89" ry="3.753" transform="translate(207.624 264.82)"/>
          <ellipse id="Ellipse_29" data-name="Ellipse 29" class="cls-5" cx="8.269" cy="10.634" rx="8.269" ry="10.634" transform="translate(42.091 223.012)"/>
          <ellipse id="Ellipse_30" data-name="Ellipse 30" class="cls-5" cx="5.218" cy="6.777" rx="5.218" ry="6.777" transform="translate(58.629 206.017)"/>
          <ellipse id="Ellipse_31" data-name="Ellipse 31" class="cls-5" cx="2.649" cy="3.441" rx="2.649" ry="3.441" transform="translate(119.64 364.701)"/>
        </g>
        <g id="Group_14" data-name="Group 14" transform="translate(0.026)">
          <path id="Path_25" data-name="Path 25" class="cls-3" d="M0,0V233.333c5.379,12.094,15.092,22.624,32.914,22.729,41.744.313,40.139-48.481,40.139-48.481s-3.211-25.961,16.056-25.961,14.45,25.961,14.45,25.961l.482,165.46c0,6.673,4.255,12.094,9.393,12.094,5.218,0,9.393-5.422,9.393-12.094V256.062s-4.817-28.776,14.45-30.861,16.056,30.861,16.056,30.861.4,35.553,31.549,37.638c31.068,2.085,34.279-37.638,34.279-37.638s-3.211,54.319,38.533,56.3c41.744,2.085,36.928-56.3,36.928-56.3s-2.168-48.168,20.069-48.481c29.221-.417,24.886,48.481,24.886,48.481v84.346c0,7.4,4.656,13.449,10.436,13.449s10.436-6.047,10.436-13.449V256.062s-.482-23.98,13.406-25.335c21.434-2.085,21.916,25.335,21.916,25.335s1.044,44,42.306,45.249c25.609.834,36.446-14.7,41.022-27.837a58.442,58.442,0,0,0,2.81-23.041c-.883-12.615-1.044-42.851,16.617-42.851s14.53,48.481,14.53,48.481V371.686c0,7.4,4.656,13.45,10.356,13.45s10.356-6.047,10.356-13.45V256.062s-2.649-25.961,14.45-26.69c15.895-.626,18.7,17.933,19.186,24.5a51.639,51.639,0,0,0,1.365,8.758c2.649,10.53,10.6,30.131,32.432,31.174,34.52,1.564,34.52-37.638,34.52-37.638V0Z"/>
        </g>
        <path id="Path_26" data-name="Path 26" class="cls-4" d="M-.006,0V198.3s-2.408,57.551,39.336,57.864,40.139-48.481,40.139-48.481-3.211-25.961,16.056-25.961,14.45,25.961,14.45,25.961l.482,165.46c0,6.673,4.255,12.094,9.393,12.094h0c5.218,0,9.392-5.422,9.392-12.094V256.062s-4.817-28.776,14.45-30.861,16.056,30.861,16.056,30.861.4,35.553,31.549,37.638c31.068,2.085,34.279-37.638,34.279-37.638s-3.211,54.319,38.533,56.3c41.744,2.085,36.928-56.3,36.928-56.3s-2.168-48.168,20.069-48.481c29.221-.417,24.886,48.481,24.886,48.481v84.346c0,7.4,4.656,13.449,10.436,13.449h0c5.78,0,10.436-6.047,10.436-13.449V256.062s-.482-23.98,13.406-25.335c21.434-2.085,21.916,25.335,21.916,25.335s1.044,44,42.306,45.249c25.609.834,36.446-14.7,41.022-27.837a58.442,58.442,0,0,0,2.81-23.041c-.883-12.615-1.044-42.851,16.617-42.851s14.53,48.481,14.53,48.481V371.686c0,7.4,4.656,13.45,10.356,13.45h0c5.7,0,10.356-6.047,10.356-13.45V256.062s-2.649-25.961,14.45-26.69c15.9-.626,18.7,17.933,19.186,24.5a51.639,51.639,0,0,0,1.365,8.758c2.649,10.53,10.6,30.131,32.432,31.174,34.519,1.564,34.519-37.638,34.519-37.638V0Z" transform="translate(0.032)"/>
        <g id="Group_15" data-name="Group 15">
          <path id="Path_27" data-name="Path 27" class="cls-6" d="M284.592,232.4s-.723,1.668-3.612,13.762c-1.2,26.586,10.436,54.841,37.329,56.509a32.335,32.335,0,0,0,4.5,0C281.381,299.647,284.592,232.4,284.592,232.4Z" transform="translate(-55.373 9.9)"/>
          <path id="Path_28" data-name="Path 28" class="cls-6" d="M430.452,332.027V247.681s4.335-49-24.886-48.481c-.642,0-1.2.1-1.766.1,25.849,2.815,21.836,48.272,21.836,48.272v84.346c0,7.4,4.656,13.45,10.436,13.45a6.517,6.517,0,0,0,2.408-.417C433.9,343.7,430.452,338.387,430.452,332.027Z" transform="translate(-79.612 8.485)"/>
          <path id="Path_29" data-name="Path 29" class="cls-6" d="M139.34,365.621l-.482-165.46s4.817-25.961-14.45-25.961a16.532,16.532,0,0,0-2.408.209c16.457,2.085,12.042,25.752,12.042,25.752l.482,165.46c0,6.673,4.255,12.094,9.393,12.094a6.517,6.517,0,0,0,2.408-.417C142.391,375.943,139.42,371.251,139.34,365.621Z" transform="translate(-24.035 7.421)"/>
          <path id="Path_30" data-name="Path 30" class="cls-6" d="M4.81,198.3V0H-.006V198.3s-2.408,57.551,39.336,57.864a25.314,25.314,0,0,0,2.81-.1C2.482,253.873,4.81,198.3,4.81,198.3Z" transform="translate(0.032)"/>
          <path id="Path_31" data-name="Path 31" class="cls-6" d="M501.557,246.64s-.562-27.42-21.916-25.335H479.4c16.939,1.981,17.34,25.231,17.34,25.231s1.044,44,42.306,45.249H543.3C502.6,290.22,501.557,246.64,501.557,246.64Z" transform="translate(-94.522 9.422)"/>
          <path id="Path_32" data-name="Path 32" class="cls-6" d="M200.858,246.865S204.069,213.919,184.8,216c-.241,0-.562.1-.8.1,14.771,2.607,12.042,30.757,12.042,30.757s.4,35.553,31.549,37.638a34.655,34.655,0,0,0,4.656,0C201.34,282.417,200.858,246.865,200.858,246.865Z" transform="translate(-36.263 9.197)"/>
          <path id="Path_33" data-name="Path 33" class="cls-6" d="M648.879,363.2V247.581s3.131-48.481-14.53-48.481a10.527,10.527,0,0,0-2.649.313c15.253,3.858,12.363,48.272,12.363,48.272V363.309c0,7.4,4.656,13.45,10.356,13.45a6.517,6.517,0,0,0,2.408-.417C652.331,374.882,648.879,369.565,648.879,363.2Z" transform="translate(-124.559 8.481)"/>
          <path id="Path_34" data-name="Path 34" class="cls-6" d="M717.157,253.259a51.627,51.627,0,0,1-1.365-8.758c-.482-6.568-3.291-25.127-19.186-24.5-.562,0-1.124.1-1.606.1,13.085,1.772,15.494,18.245,15.975,24.292a51.627,51.627,0,0,0,1.365,8.758c2.649,10.53,10.6,30.131,32.432,31.174a31.183,31.183,0,0,0,4.415,0C727.593,283.182,719.806,263.685,717.157,253.259Z" transform="translate(-137.043 9.371)"/>
        </g>
        <ellipse id="Ellipse_32" data-name="Ellipse 32" class="cls-5" cx="8.269" cy="10.634" rx="8.269" ry="10.634" transform="translate(448.779 259.503)"/>
        <ellipse id="Ellipse_33" data-name="Ellipse 33" class="cls-5" cx="5.218" cy="6.777" rx="5.218" ry="6.777" transform="translate(465.236 242.613)"/>
        <ellipse id="Ellipse_34" data-name="Ellipse 34" class="cls-5" cx="2.649" cy="3.441" rx="2.649" ry="3.441" transform="translate(356.219 333.527)"/>
        <ellipse id="Ellipse_35" data-name="Ellipse 35" class="cls-5" cx="2.649" cy="3.441" rx="2.649" ry="3.441" transform="translate(529.699 365.431)"/>
        <ellipse id="Ellipse_36" data-name="Ellipse 36" class="cls-5" cx="6.422" cy="8.341" rx="6.422" ry="8.341" transform="translate(612.144 264.299)"/>
        <ellipse id="Ellipse_37" data-name="Ellipse 37" class="cls-5" cx="4.094" cy="5.317" rx="4.094" ry="5.317" transform="translate(624.989 251.058)"/>
        <ellipse id="Ellipse_38" data-name="Ellipse 38" class="cls-5" cx="5.941" cy="7.715" rx="5.941" ry="7.715" transform="translate(273.131 282.648)"/>
        <ellipse id="Ellipse_39" data-name="Ellipse 39" class="cls-5" cx="3.773" cy="4.9" rx="3.773" ry="4.9" transform="translate(285.012 270.45)"/>
        <ellipse id="Ellipse_40" data-name="Ellipse 40" class="cls-5" cx="4.576" cy="5.839" rx="4.576" ry="5.839" transform="translate(198.553 274.203)"/>
        <ellipse id="Ellipse_41" data-name="Ellipse 41" class="cls-5" cx="2.89" cy="3.753" rx="2.89" ry="3.753" transform="translate(207.705 264.82)"/>
        <ellipse id="Ellipse_42" data-name="Ellipse 42" class="cls-5" cx="8.269" cy="10.634" rx="8.269" ry="10.634" transform="translate(42.091 223.012)"/>
        <ellipse id="Ellipse_43" data-name="Ellipse 43" class="cls-5" cx="5.218" cy="6.777" rx="5.218" ry="6.777" transform="translate(58.629 206.017)"/>
        <ellipse id="Ellipse_44" data-name="Ellipse 44" class="cls-5" cx="2.649" cy="3.441" rx="2.649" ry="3.441" transform="translate(119.64 364.701)"/>
        <g id="Group_16" data-name="Group 16" transform="translate(306.848 62.035)">
          <path id="Path_35" data-name="Path 35" class="cls-6" d="M392.9,138.471s9.152,34.927,43.671,37.742c16.457,1.355,28.017-7.194,35.643-16.473,6.824-8.341,10.918-19.5,12.282-31.486,1.2-10.635,5.62-25.648,20.953-24.293,18.384,1.564,20.631,14.179,20.631,19.705a31.129,31.129,0,0,0,1.284,9.071c3.051,10.113,12.523,28.671,40.942,29.193,39.256.834,36.848-31.695,36.848-31.695s-2.328-28.567,19.588-26.482c22,2.085,18.865,24.4,18.865,24.4s0,49.419,39.256,48.064,35.964-45.979,35.964-45.979V63.3L392.9,82.171Z" transform="translate(-384.31 -59.338)"/>
          <path id="Path_36" data-name="Path 36" class="cls-4" d="M382.28,128.52s21.033,41.078,55.552,44c16.457,1.355,28.017-7.194,35.643-16.473,6.824-8.341,10.918-19.5,12.283-31.486,1.2-10.635,5.619-25.648,20.952-24.293,18.384,1.564,20.631,14.179,20.631,19.705a31.129,31.129,0,0,0,1.284,9.071c3.051,10.113,12.523,28.671,40.942,29.193,39.256.834,36.848-31.695,36.848-31.695S604.088,97.972,626,100.057c22,2.085,18.865,24.4,18.865,24.4s0,49.419,39.256,48.064,35.964-45.979,35.964-45.979V59.5L382.2,73.054V128.52Z" transform="translate(-382.2 -59.5)"/>
          <ellipse id="Ellipse_45" data-name="Ellipse 45" class="cls-5" cx="3.452" cy="4.483" rx="3.452" ry="4.483" transform="translate(210.408 65.892)"/>
          <ellipse id="Ellipse_46" data-name="Ellipse 46" class="cls-5" cx="4.897" cy="6.36" rx="4.897" ry="6.36" transform="translate(312.361 84.033)"/>
          <ellipse id="Ellipse_47" data-name="Ellipse 47" class="cls-5" cx="3.452" cy="4.483" rx="3.452" ry="4.483" transform="translate(322.155 65.892)"/>
          <ellipse id="Ellipse_48" data-name="Ellipse 48" class="cls-5" cx="4.897" cy="6.36" rx="4.897" ry="6.36" transform="translate(67.433 84.033)"/>
        </g>
        <g id="Group_17" data-name="Group 17" transform="translate(739.304 181.621)">
          <path id="Path_37" data-name="Path 37" class="cls-6" d="M938.24,365.621l-.482-165.46s4.817-25.961-14.45-25.961a16.539,16.539,0,0,0-2.408.208c16.457,2.085,12.042,25.752,12.042,25.752l.482,165.46c0,6.673,4.255,12.094,9.393,12.094a6.516,6.516,0,0,0,2.408-.417C941.21,375.943,938.24,371.251,938.24,365.621Z" transform="translate(-920.9 -174.2)"/>
          <path id="Path_38" data-name="Path 38" class="cls-6" d="M999.758,246.865S1002.969,213.919,983.7,216c-.241,0-.562.1-.8.1,14.771,2.607,12.042,30.757,12.042,30.757s.4,35.553,31.549,37.638a34.654,34.654,0,0,0,4.656,0C1000.16,282.417,999.758,246.865,999.758,246.865Z" transform="translate(-933.128 -172.423)"/>
        </g>
      </g>
      <g id="Group_20" data-name="Group 20" transform="translate(505.522 334.571)">
        <g id="Group_19" data-name="Group 19" class="cls-7" transform="translate(0 0)">
          <path id="Path_39" data-name="Path 39" class="cls-8" d="M.439-.016c.23-.022.4.187.377.467A.578.578,0,0,1,.359,1C.129,1.019-.039.81-.017.53A.578.578,0,0,1,.439-.016Z" transform="matrix(0.936, -0.353, 0.353, 0.936, 1.704, 0.323)"/>
          <path id="Path_40" data-name="Path 40" class="cls-8" d="M.439-.016c.23-.022.4.187.377.467A.578.578,0,0,1,.359,1C.129,1.019-.039.81-.017.53A.578.578,0,0,1,.439-.016Z" transform="matrix(0.936, -0.353, 0.353, 0.936, 0, 13.254)"/>
          <path id="Path_41" data-name="Path 41" class="cls-8" d="M.439-.016c.23-.022.4.187.377.467A.578.578,0,0,1,.359,1C.129,1.019-.039.81-.017.53A.578.578,0,0,1,.439-.016Z" transform="translate(1.2 9.268) rotate(-20.708)"/>
          <path id="Path_42" data-name="Path 42" class="cls-8" d="M.439-.016c.23-.022.4.187.377.467A.578.578,0,0,1,.359,1C.129,1.019-.039.81-.017.53A.578.578,0,0,1,.439-.016Z" transform="translate(0.313 3.825) rotate(-20.757)"/>
        </g>
      </g>
      <path id="Path_43" data-name="Path 43" class="cls-6" d="M1083.592,232.1s-.722,1.668-3.612,13.762c-1.2,26.586,10.436,54.841,37.329,56.509a32.326,32.326,0,0,0,4.5,0C1080.381,299.348,1083.592,232.1,1083.592,232.1Z" transform="translate(-212.985 9.887)"/>
    </g>
  </g>
</svg>
