<svg xmlns="http://www.w3.org/2000/svg" viewBox="8322.824 2035 1456.176 479.68"><defs><style>.a{opacity:0.16;}.b{fill:#ffb900;}.c{fill:#fff1d6;}.d{fill:#f0f;}.e{opacity:0.9;}.f{fill:#050505;opacity:0.2;}</style></defs><g transform="translate(8322.856 2035)"><g transform="translate(-0.032)"><g transform="translate(969.827)"><g transform="translate(0.039)"><path class="a" d="M798.9,0V290.534c8.133,15.059,22.822,28.171,49.772,28.3,63.125.389,60.7-60.366,60.7-60.366s-4.856-32.325,24.279-32.325S955.5,258.469,955.5,258.469l.728,206.022c0,8.308,6.434,15.059,14.2,15.059,7.891,0,14.2-6.751,14.2-15.059V318.834s-7.284-35.83,21.851-38.426,24.279,38.426,24.279,38.426.607,44.268,47.708,46.864c46.98,2.6,51.836-46.864,51.836-46.864s-4.856,67.635,58.27,70.1c63.126,2.6,55.842-70.1,55.842-70.1s-3.278-59.976,30.349-60.366a43.092,43.092,0,0,1,10.44,1.168L1284.6,0Z" transform="translate(-798.9)"/></g><path class="b" d="M798.907,0V246.915s-3.642,71.66,59.484,72.049,60.7-60.366,60.7-60.366-4.856-32.325,24.279-32.325S965.218,258.6,965.218,258.6l.728,206.022c0,8.308,6.434,15.059,14.2,15.059h0c7.891,0,14.2-6.751,14.2-15.059V318.834S987.07,283,1016.2,280.408s24.279,38.426,24.279,38.426.607,44.268,47.708,46.864c46.98,2.6,51.836-46.864,51.836-46.864s-4.856,67.635,58.27,70.1c63.126,2.6,55.842-70.1,55.842-70.1s-3.278-59.976,30.349-60.366h.728L1284.609,0Z" transform="translate(-798.868)"/><ellipse class="c" cx="8.983" cy="9.607" rx="8.983" ry="9.607" transform="translate(413.026 351.938)"/><ellipse class="c" cx="5.706" cy="6.101" rx="5.706" ry="6.101" transform="translate(430.992 336.749)"/><ellipse class="c" cx="6.92" cy="7.27" rx="6.92" ry="7.27" transform="translate(300.25 341.423)"/><ellipse class="c" cx="4.37" cy="4.673" rx="4.37" ry="4.673" transform="translate(313.967 329.739)"/><ellipse class="c" cx="12.504" cy="13.241" rx="12.504" ry="13.241" transform="translate(63.65 277.682)"/><ellipse class="c" cx="7.891" cy="8.438" rx="7.891" ry="8.438" transform="translate(88.658 256.522)"/><ellipse class="c" cx="4.006" cy="4.284" rx="4.006" ry="4.284" transform="translate(180.918 454.105)"/></g><g transform="translate(0.039)"><path class="a" d="M0,0V290.534c8.133,15.059,22.822,28.171,49.772,28.3,63.126.389,60.7-60.366,60.7-60.366s-4.856-32.325,24.279-32.325S156.6,258.469,156.6,258.469l.728,206.022c0,8.308,6.434,15.059,14.2,15.059,7.891,0,14.2-6.751,14.2-15.059V318.834s-7.284-35.83,21.851-38.426,24.279,38.426,24.279,38.426.607,44.268,47.708,46.864c46.98,2.6,51.836-46.864,51.836-46.864s-4.856,67.635,58.27,70.1c63.126,2.6,55.842-70.1,55.842-70.1s-3.278-59.976,30.349-60.366c44.188-.519,37.633,60.366,37.633,60.366V423.858c0,9.217,7.041,16.747,15.781,16.747s15.781-7.529,15.781-16.747V318.834s-.728-29.858,20.273-31.546c32.413-2.6,33.141,31.546,33.141,31.546s1.578,54.784,63.975,56.341c38.725,1.039,55.113-18.3,62.033-34.662a60.821,60.821,0,0,0,4.249-28.69c-1.335-15.708-1.578-53.355,25.129-53.355s21.973,60.366,21.973,60.366V462.8c0,9.217,7.041,16.747,15.66,16.747s15.66-7.529,15.66-16.747V318.834s-4.006-32.325,21.851-33.234c24.036-.779,28.285,22.329,29.014,30.507a53.883,53.883,0,0,0,2.064,10.9c4.006,13.112,16.024,37.518,49.044,38.816,52.2,1.947,52.2-46.864,52.2-46.864V0Z"/></g><path class="b" d="M.007,0V246.915s-3.642,71.66,59.484,72.049,60.7-60.366,60.7-60.366-4.856-32.325,24.279-32.325S166.318,258.6,166.318,258.6l.728,206.022c0,8.308,6.434,15.059,14.2,15.059h0c7.891,0,14.2-6.751,14.2-15.059V318.834S188.17,283,217.3,280.408s24.279,38.426,24.279,38.426.607,44.268,47.708,46.864c46.98,2.6,51.836-46.864,51.836-46.864s-4.856,67.635,58.27,70.1c63.126,2.6,55.842-70.1,55.842-70.1s-3.278-59.976,30.349-60.366c44.188-.519,37.632,60.366,37.632,60.366V423.858c0,9.217,7.041,16.747,15.781,16.747h0c8.74,0,15.781-7.529,15.781-16.747V318.834s-.728-29.858,20.273-31.546c32.412-2.6,33.141,31.546,33.141,31.546s1.578,54.784,63.975,56.341c38.725,1.039,55.114-18.3,62.033-34.662a60.823,60.823,0,0,0,4.249-28.69c-1.335-15.708-1.578-53.355,25.129-53.355s21.972,60.366,21.972,60.366V462.8c0,9.217,7.041,16.747,15.66,16.747h0c8.619,0,15.66-7.529,15.66-16.747V318.834S812.87,286.51,838.727,285.6c24.036-.779,28.285,22.329,29.014,30.507a53.874,53.874,0,0,0,2.064,10.9c4.006,13.112,16.024,37.518,49.044,38.816,52.2,1.947,52.2-46.864,52.2-46.864V0Z" transform="translate(0.032)"/><path class="d" d="M286.485,232.4s-1.093,2.077-5.463,17.136c-1.821,33.1,15.781,68.285,56.449,70.362a59.383,59.383,0,0,0,6.8,0C281.629,316.133,286.485,232.4,286.485,232.4Z" transform="translate(60.137 69.298)"/><path class="d" d="M444.1,364.59V259.567s6.555-61.015-37.633-60.366c-.971,0-1.821.13-2.671.13,39.089,3.505,33.02,60.106,33.02,60.106V364.46c0,9.217,7.041,16.747,15.781,16.747a11.771,11.771,0,0,0,3.642-.519C449.323,379.13,444.1,372.509,444.1,364.59Z" transform="translate(86.433 59.397)"/><path class="d" d="M148.221,412.547l-.728-206.022s7.284-32.325-21.851-32.325a30.243,30.243,0,0,0-3.642.26c24.886,2.6,18.209,32.065,18.209,32.065l.728,206.022c0,8.308,6.434,15.059,14.2,15.059a11.771,11.771,0,0,0,3.642-.519C152.834,425.4,148.343,419.557,148.221,412.547Z" transform="translate(26.141 51.944)"/><path class="d" d="M7.291,246.915V0H.007V246.915s-3.642,71.66,59.484,72.049c1.457,0,2.792,0,4.249-.13C3.77,316.108,7.291,246.915,7.291,246.915Z" transform="translate(0.032)"/><path class="d" d="M512.905,252.878s-.85-34.142-33.141-31.546H479.4c25.614,2.466,26.221,31.416,26.221,31.416S507.2,307.532,569.6,309.09h6.434C514.483,307.142,512.905,252.878,512.905,252.878Z" transform="translate(102.608 65.956)"/><path class="d" d="M209.493,254.453s4.856-41.023-24.279-38.426c-.364,0-.85.13-1.214.13,22.337,3.245,18.209,38.3,18.209,38.3s.607,44.268,47.708,46.865a63.637,63.637,0,0,0,7.041,0C210.221,298.722,209.493,254.453,209.493,254.453Z" transform="translate(39.406 64.381)"/><path class="d" d="M657.679,403.434V259.466s4.734-60.366-21.973-60.366a19.176,19.176,0,0,0-4.006.389c23.065,4.8,18.695,60.106,18.695,60.106V403.564c0,9.217,7.041,16.747,15.66,16.747a11.77,11.77,0,0,0,3.642-.519C662.9,417.974,657.679,411.353,657.679,403.434Z" transform="translate(135.193 59.369)"/><path class="d" d="M728.505,261.417a53.877,53.877,0,0,1-2.064-10.9c-.728-8.179-4.977-31.286-29.013-30.507-.85,0-1.7.13-2.428.13,19.787,2.207,23.429,22.718,24.158,30.248a53.878,53.878,0,0,0,2.064,10.9c4.006,13.112,16.024,37.518,49.044,38.816a57.225,57.225,0,0,0,6.677,0C744.286,298.674,732.511,274.4,728.505,261.417Z" transform="translate(148.736 65.596)"/><ellipse class="c" cx="12.504" cy="13.241" rx="12.504" ry="13.241" transform="translate(678.639 323.118)"/><ellipse class="c" cx="7.891" cy="8.438" rx="7.891" ry="8.438" transform="translate(703.525 302.088)"/><ellipse class="c" cx="4.006" cy="4.284" rx="4.006" ry="4.284" transform="translate(538.67 415.29)"/><ellipse class="c" cx="4.006" cy="4.284" rx="4.006" ry="4.284" transform="translate(801.005 455.014)"/><ellipse class="c" cx="9.712" cy="10.385" rx="9.712" ry="10.385" transform="translate(925.678 329.09)"/><ellipse class="c" cx="6.191" cy="6.621" rx="6.191" ry="6.621" transform="translate(945.102 312.603)"/><ellipse class="c" cx="8.983" cy="9.607" rx="8.983" ry="9.607" transform="translate(413.026 351.938)"/><ellipse class="c" cx="5.706" cy="6.101" rx="5.706" ry="6.101" transform="translate(430.992 336.749)"/><ellipse class="c" cx="6.92" cy="7.27" rx="6.92" ry="7.27" transform="translate(300.25 341.423)"/><ellipse class="c" cx="4.37" cy="4.673" rx="4.37" ry="4.673" transform="translate(314.089 329.739)"/><ellipse class="c" cx="12.504" cy="13.241" rx="12.504" ry="13.241" transform="translate(63.65 277.682)"/><ellipse class="c" cx="7.891" cy="8.438" rx="7.891" ry="8.438" transform="translate(88.658 256.522)"/><ellipse class="c" cx="4.006" cy="4.284" rx="4.006" ry="4.284" transform="translate(180.918 454.105)"/><g transform="translate(464.012 77.242)"><path class="d" d="M392.9,156.9s13.839,43.489,66.039,46.994c24.886,1.688,42.367-8.957,53.9-20.511,10.319-10.385,16.51-24.276,18.573-39.205,1.821-13.242,8.5-31.935,31.684-30.248,27.8,1.947,31.2,17.655,31.2,24.536a32.442,32.442,0,0,0,1.942,11.294c4.613,12.592,18.938,35.7,61.912,36.349,59.362,1.039,55.721-39.465,55.721-39.465s-3.521-35.57,29.62-32.974c33.262,2.6,28.528,30.378,28.528,30.378s0,61.534,59.362,59.846,54.385-57.25,54.385-57.25V63.3L392.9,86.8Z" transform="translate(-379.911 -58.367)"/><path class="b" d="M382.321,145.44s31.806,51.149,84.006,54.783c24.886,1.688,42.367-8.957,53.9-20.511,10.319-10.385,16.51-24.276,18.573-39.205,1.821-13.242,8.5-31.935,31.684-30.248,27.8,1.947,31.2,17.655,31.2,24.536a32.445,32.445,0,0,0,1.942,11.294c4.613,12.592,18.938,35.7,61.912,36.349,59.362,1.039,55.721-39.465,55.721-39.465S717.737,107.4,750.878,110c33.262,2.6,28.528,30.378,28.528,30.378s0,61.534,59.362,59.846,54.385-57.25,54.385-57.25V59.5L382.2,76.376V145.44Z" transform="translate(-382.2 -59.5)"/><ellipse class="c" cx="5.22" cy="5.582" rx="5.22" ry="5.582" transform="translate(318.177 82.045)"/><ellipse class="c" cx="7.405" cy="7.919" rx="7.405" ry="7.919" transform="translate(472.349 104.634)"/><ellipse class="c" cx="5.22" cy="5.582" rx="5.22" ry="5.582" transform="translate(487.159 82.045)"/><ellipse class="c" cx="7.405" cy="7.919" rx="7.405" ry="7.919" transform="translate(101.972 104.634)"/></g><g transform="translate(1117.968 226.144)"><path class="d" d="M947.121,412.547l-.728-206.022s7.284-32.325-21.851-32.325a30.236,30.236,0,0,0-3.642.26c24.886,2.6,18.209,32.065,18.209,32.065l.728,206.022c0,8.308,6.434,15.059,14.2,15.059a11.772,11.772,0,0,0,3.642-.519A14.888,14.888,0,0,1,947.121,412.547Z" transform="translate(-920.9 -174.2)"/><path class="d" d="M1008.393,254.453s4.856-41.023-24.279-38.426c-.364,0-.85.13-1.214.13,22.337,3.245,18.21,38.3,18.21,38.3s.607,44.268,47.708,46.865a63.642,63.642,0,0,0,7.041,0C1009,298.722,1008.393,254.453,1008.393,254.453Z" transform="translate(-907.635 -161.763)"/></g></g><g transform="translate(764.488 416.569)"><g class="e" transform="translate(0 0)"><path class="f" d="M.626,0a.6.6,0,0,1,.6.63A.663.663,0,0,1,.6,1.287.6.6,0,0,1,0,.657.663.663,0,0,1,.626,0Z" transform="matrix(0.936, -0.353, 0.353, 0.936, 2.576, 0.434)"/><path class="f" d="M.626,0a.6.6,0,0,1,.6.63A.663.663,0,0,1,.6,1.287.6.6,0,0,1,0,.657.663.663,0,0,1,.626,0Z" transform="matrix(0.936, -0.353, 0.353, 0.936, 0, 16.535)"/><path class="f" d="M.626,0a.6.6,0,0,1,.6.63A.663.663,0,0,1,.6,1.287.6.6,0,0,1,0,.657.663.663,0,0,1,.626,0Z" transform="translate(1.814 11.571) rotate(-20.708)"/><path class="f" d="M.626,0a.6.6,0,0,1,.6.63A.663.663,0,0,1,.6,1.287.6.6,0,0,1,0,.657.663.663,0,0,1,.626,0Z" transform="translate(0.474 4.795) rotate(-20.757)"/></g></g><path class="d" d="M1085.485,232.1s-1.093,2.077-5.463,17.136c-1.821,33.1,15.781,68.285,56.449,70.362a59.366,59.366,0,0,0,6.8,0C1080.629,315.833,1085.485,232.1,1085.485,232.1Z" transform="translate(231.054 69.209)"/></g></svg>