<svg id="_1ST_PAGE_STUFFS" data-name="1ST PAGE STUFFS" xmlns="http://www.w3.org/2000/svg" xmlns:xlink="http://www.w3.org/1999/xlink" viewBox="0 -41.052 1440 520.732">
  <defs>
    <style>
      .cls-1 {
        opacity: 0.16;
      }

      .cls-2 {
        fill: #ffb900;
      }

      .cls-3 {
        fill: #fff1d6;
      }

      .cls-4 {
        fill: #f0f;
      }

      .cls-5 {
        opacity: 0.9;
      }

      .cls-6 {
        fill: #050505;
        opacity: 0.2;
      }

      .cls-7 {
        fill: #fff;
      }

      .cls-8 {
        fill: url(#linear-gradient);
      }
    </style>
    <linearGradient id="linear-gradient" x1="0.499" y1="-0.082" x2="0.501" y2="0.663" gradientUnits="objectBoundingBox">
      <stop offset="0" stop-color="#fff"/>
      <stop offset="0.142" stop-color="#d5d4d4"/>
      <stop offset="0.37" stop-color="#969495"/>
      <stop offset="0.579" stop-color="#646262"/>
      <stop offset="0.76" stop-color="#413d3e"/>
      <stop offset="0.906" stop-color="#2b2728"/>
      <stop offset="1" stop-color="#231f20"/>
    </linearGradient>
  </defs>
  <g id="Group_69" data-name="Group 69">
    <g id="ORANGE_DRIP_DRIP" data-name="ORANGE DRIP DRIP" transform="translate(0.032)">
      <g id="Group_50" data-name="Group 50" transform="translate(-0.032)">
        <g id="Group_45" data-name="Group 45" transform="translate(959.054)">
          <g id="Group_43" data-name="Group 43" transform="translate(0.039)">
            <path id="Path_59" data-name="Path 59" class="cls-1" d="M798.9,0V290.534c8.043,15.059,22.569,28.171,49.219,28.3,62.424.389,60.023-60.366,60.023-60.366s-4.8-32.325,24.009-32.325,21.608,32.325,21.608,32.325l.72,206.022c0,8.308,6.362,15.059,14.045,15.059,7.8,0,14.046-6.751,14.046-15.059V318.834s-7.2-35.83,21.608-38.426,24.009,38.426,24.009,38.426.6,44.268,47.178,46.864c46.458,2.6,51.26-46.864,51.26-46.864s-4.8,67.635,57.623,70.1c62.424,2.6,55.222-70.1,55.222-70.1s-3.241-59.976,30.012-60.366a42.161,42.161,0,0,1,10.324,1.168L1279.207,0Z" transform="translate(-798.9)"/>
          </g>
          <g id="Group_44" data-name="Group 44">
            <path id="Path_60" data-name="Path 60" class="cls-2" d="M798.906,0V246.915s-3.6,71.66,58.823,72.049S917.753,258.6,917.753,258.6s-4.8-32.325,24.009-32.325S963.37,258.6,963.37,258.6l.72,206.022c0,8.308,6.362,15.059,14.045,15.059h0c7.8,0,14.046-6.751,14.046-15.059V318.834s-7.2-35.83,21.608-38.426,24.009,38.426,24.009,38.426.6,44.268,47.178,46.864c46.458,2.6,51.26-46.864,51.26-46.864s-4.8,67.635,57.622,70.1c62.424,2.6,55.222-70.1,55.222-70.1s-3.241-59.976,30.012-60.366h.72L1279.214,0Z" transform="translate(-798.868)"/>
          </g>
          <ellipse id="Ellipse_1" data-name="Ellipse 1" class="cls-3" cx="8.883" cy="9.607" rx="8.883" ry="9.607" transform="translate(408.438 351.938)"/>
          <ellipse id="Ellipse_2" data-name="Ellipse 2" class="cls-3" cx="5.642" cy="6.101" rx="5.642" ry="6.101" transform="translate(426.205 336.749)"/>
          <ellipse id="Ellipse_3" data-name="Ellipse 3" class="cls-3" cx="6.843" cy="7.27" rx="6.843" ry="7.27" transform="translate(296.914 341.423)"/>
          <ellipse id="Ellipse_4" data-name="Ellipse 4" class="cls-3" cx="4.322" cy="4.673" rx="4.322" ry="4.673" transform="translate(310.479 329.739)"/>
          <ellipse id="Ellipse_5" data-name="Ellipse 5" class="cls-3" cx="12.365" cy="13.241" rx="12.365" ry="13.241" transform="translate(62.943 277.682)"/>
          <ellipse id="Ellipse_6" data-name="Ellipse 6" class="cls-3" cx="7.803" cy="8.438" rx="7.803" ry="8.438" transform="translate(87.673 256.522)"/>
          <ellipse id="Ellipse_7" data-name="Ellipse 7" class="cls-3" cx="3.962" cy="4.284" rx="3.962" ry="4.284" transform="translate(178.908 454.105)"/>
        </g>
        <g id="Group_46" data-name="Group 46" transform="translate(0.039)">
          <path id="Path_61" data-name="Path 61" class="cls-1" d="M0,0V290.534c8.043,15.059,22.569,28.171,49.219,28.3,62.424.389,60.023-60.366,60.023-60.366s-4.8-32.325,24.009-32.325,21.608,32.325,21.608,32.325l.72,206.022c0,8.308,6.362,15.059,14.045,15.059,7.8,0,14.045-6.751,14.045-15.059V318.834s-7.2-35.83,21.608-38.426,24.009,38.426,24.009,38.426.6,44.268,47.178,46.864c46.458,2.6,51.26-46.864,51.26-46.864s-4.8,67.635,57.622,70.1c62.424,2.6,55.222-70.1,55.222-70.1s-3.241-59.976,30.012-60.366c43.7-.519,37.215,60.366,37.215,60.366V423.858c0,9.217,6.963,16.747,15.606,16.747s15.606-7.529,15.606-16.747V318.834s-.72-29.858,20.048-31.546c32.053-2.6,32.773,31.546,32.773,31.546s1.561,54.784,63.265,56.341c38.295,1.039,54.5-18.3,61.344-34.662a61.442,61.442,0,0,0,4.2-28.69c-1.32-15.708-1.561-53.355,24.85-53.355s21.728,60.366,21.728,60.366V462.8c0,9.217,6.963,16.747,15.486,16.747s15.486-7.529,15.486-16.747V318.834S794.23,286.51,819.8,285.6c23.769-.779,27.971,22.329,28.691,30.507a54.424,54.424,0,0,0,2.041,10.9c3.962,13.112,15.846,37.518,48.5,38.816,51.62,1.947,51.62-46.864,51.62-46.864V0Z"/>
        </g>
        <path id="Path_62" data-name="Path 62" class="cls-2" d="M.006,0V246.915s-3.6,71.66,58.823,72.049S118.853,258.6,118.853,258.6s-4.8-32.325,24.009-32.325S164.471,258.6,164.471,258.6l.72,206.022c0,8.308,6.362,15.059,14.045,15.059h0c7.8,0,14.045-6.751,14.045-15.059V318.834s-7.2-35.83,21.608-38.426S238.9,318.834,238.9,318.834s.6,44.268,47.178,46.864c46.458,2.6,51.26-46.864,51.26-46.864s-4.8,67.635,57.622,70.1c62.424,2.6,55.222-70.1,55.222-70.1s-3.241-59.976,30.012-60.366c43.7-.519,37.214,60.366,37.214,60.366V423.858c0,9.217,6.963,16.747,15.606,16.747h0c8.643,0,15.606-7.529,15.606-16.747V318.834s-.72-29.858,20.048-31.546c32.052-2.6,32.773,31.546,32.773,31.546s1.561,54.784,63.265,56.341c38.295,1.039,54.5-18.3,61.344-34.662a61.443,61.443,0,0,0,4.2-28.69c-1.32-15.708-1.561-53.355,24.85-53.355s21.728,60.366,21.728,60.366V462.8c0,9.217,6.963,16.747,15.486,16.747h0c8.523,0,15.486-7.529,15.486-16.747V318.834S803.84,286.51,829.41,285.6c23.769-.779,27.971,22.329,28.691,30.507a54.411,54.411,0,0,0,2.041,10.9c3.961,13.112,15.846,37.518,48.5,38.816,51.62,1.947,51.62-46.864,51.62-46.864V0Z" transform="translate(0.032)"/>
        <g id="Group_47" data-name="Group 47">
          <path id="Path_63" data-name="Path 63" class="cls-4" d="M286.423,232.4s-1.08,2.077-5.4,17.136c-1.8,33.1,15.606,68.285,55.822,70.362a58.072,58.072,0,0,0,6.723,0C281.621,316.133,286.423,232.4,286.423,232.4Z" transform="translate(56.349 69.298)"/>
          <path id="Path_64" data-name="Path 64" class="cls-4" d="M443.655,364.59V259.567s6.483-61.015-37.214-60.366c-.96,0-1.8.13-2.641.13,38.655,3.505,32.653,60.106,32.653,60.106V364.46c0,9.217,6.963,16.747,15.606,16.747a11.52,11.52,0,0,0,3.6-.519C448.817,379.13,443.655,372.509,443.655,364.59Z" transform="translate(80.988 59.397)"/>
          <path id="Path_65" data-name="Path 65" class="cls-4" d="M147.93,412.547l-.72-206.022s7.2-32.325-21.608-32.325a29.58,29.58,0,0,0-3.6.26c24.61,2.6,18.007,32.065,18.007,32.065l.72,206.022c0,8.308,6.362,15.059,14.045,15.059a11.521,11.521,0,0,0,3.6-.519C152.492,425.4,148.05,419.557,147.93,412.547Z" transform="translate(24.496 51.944)"/>
          <path id="Path_66" data-name="Path 66" class="cls-4" d="M7.209,246.915V0H.006V246.915s-3.6,71.66,58.823,72.049c1.441,0,2.761,0,4.2-.13C3.728,316.108,7.209,246.915,7.209,246.915Z" transform="translate(0.032)"/>
          <path id="Path_67" data-name="Path 67" class="cls-4" d="M512.533,252.878s-.84-34.142-32.773-31.546h-.36c25.33,2.466,25.93,31.416,25.93,31.416s1.561,54.783,63.265,56.341h6.362C514.094,307.142,512.533,252.878,512.533,252.878Z" transform="translate(96.143 65.956)"/>
          <path id="Path_68" data-name="Path 68" class="cls-4" d="M209.21,254.453s4.8-41.023-24.009-38.426c-.36,0-.84.13-1.2.13,22.089,3.245,18.007,38.3,18.007,38.3s.6,44.268,47.178,46.865a62.232,62.232,0,0,0,6.963,0C209.93,298.722,209.21,254.453,209.21,254.453Z" transform="translate(36.925 64.381)"/>
          <path id="Path_69" data-name="Path 69" class="cls-4" d="M657.39,403.434V259.466s4.682-60.366-21.728-60.366a18.759,18.759,0,0,0-3.961.389c22.809,4.8,18.487,60.106,18.487,60.106V403.564c0,9.217,6.963,16.747,15.486,16.747a11.519,11.519,0,0,0,3.6-.519C662.552,417.974,657.39,411.353,657.39,403.434Z" transform="translate(126.674 59.369)"/>
          <path id="Path_70" data-name="Path 70" class="cls-4" d="M728.133,261.417a54.415,54.415,0,0,1-2.041-10.9c-.72-8.179-4.922-31.286-28.691-30.507-.84,0-1.681.13-2.4.13,19.568,2.207,23.169,22.718,23.889,30.248a54.42,54.42,0,0,0,2.041,10.9c3.961,13.112,15.846,37.518,48.5,38.816a55.961,55.961,0,0,0,6.6,0C743.739,298.674,732.094,274.4,728.133,261.417Z" transform="translate(139.364 65.596)"/>
        </g>
        <ellipse id="Ellipse_8" data-name="Ellipse 8" class="cls-3" cx="12.365" cy="13.241" rx="12.365" ry="13.241" transform="translate(671.1 323.118)"/>
        <ellipse id="Ellipse_9" data-name="Ellipse 9" class="cls-3" cx="7.803" cy="8.438" rx="7.803" ry="8.438" transform="translate(695.71 302.088)"/>
        <ellipse id="Ellipse_10" data-name="Ellipse 10" class="cls-3" cx="3.962" cy="4.284" rx="3.962" ry="4.284" transform="translate(532.686 415.29)"/>
        <ellipse id="Ellipse_11" data-name="Ellipse 11" class="cls-3" cx="3.962" cy="4.284" rx="3.962" ry="4.284" transform="translate(792.107 455.014)"/>
        <ellipse id="Ellipse_12" data-name="Ellipse 12" class="cls-3" cx="9.604" cy="10.385" rx="9.604" ry="10.385" transform="translate(915.395 329.09)"/>
        <ellipse id="Ellipse_13" data-name="Ellipse 13" class="cls-3" cx="6.122" cy="6.621" rx="6.122" ry="6.621" transform="translate(934.603 312.603)"/>
        <ellipse id="Ellipse_14" data-name="Ellipse 14" class="cls-3" cx="8.883" cy="9.607" rx="8.883" ry="9.607" transform="translate(408.438 351.938)"/>
        <ellipse id="Ellipse_15" data-name="Ellipse 15" class="cls-3" cx="5.642" cy="6.101" rx="5.642" ry="6.101" transform="translate(426.205 336.749)"/>
        <ellipse id="Ellipse_16" data-name="Ellipse 16" class="cls-3" cx="6.843" cy="7.27" rx="6.843" ry="7.27" transform="translate(296.914 341.423)"/>
        <ellipse id="Ellipse_17" data-name="Ellipse 17" class="cls-3" cx="4.322" cy="4.673" rx="4.322" ry="4.673" transform="translate(310.6 329.739)"/>
        <ellipse id="Ellipse_18" data-name="Ellipse 18" class="cls-3" cx="12.365" cy="13.241" rx="12.365" ry="13.241" transform="translate(62.943 277.682)"/>
        <ellipse id="Ellipse_19" data-name="Ellipse 19" class="cls-3" cx="7.803" cy="8.438" rx="7.803" ry="8.438" transform="translate(87.673 256.522)"/>
        <ellipse id="Ellipse_20" data-name="Ellipse 20" class="cls-3" cx="3.962" cy="4.284" rx="3.962" ry="4.284" transform="translate(178.908 454.105)"/>
        <g id="Group_48" data-name="Group 48" transform="translate(458.857 77.242)">
          <path id="Path_71" data-name="Path 71" class="cls-4" d="M392.9,156.9s13.685,43.489,65.305,46.994c24.61,1.688,41.9-8.957,53.3-20.511,10.2-10.385,16.326-24.276,18.367-39.205,1.8-13.242,8.4-31.935,31.332-30.248,27.491,1.947,30.852,17.655,30.852,24.536a32.771,32.771,0,0,0,1.921,11.294c4.562,12.592,18.727,35.7,61.224,36.349,58.7,1.039,55.1-39.465,55.1-39.465s-3.481-35.57,29.291-32.974c32.893,2.6,28.211,30.378,28.211,30.378s0,61.534,58.7,59.846,53.781-57.25,53.781-57.25V63.3L392.9,86.8Z" transform="translate(-380.055 -58.367)"/>
          <path id="Path_72" data-name="Path 72" class="cls-2" d="M382.32,145.44s31.452,51.149,83.072,54.783c24.61,1.688,41.9-8.957,53.3-20.511,10.2-10.385,16.326-24.276,18.367-39.205,1.8-13.242,8.4-31.935,31.332-30.248,27.491,1.947,30.852,17.655,30.852,24.536a32.773,32.773,0,0,0,1.921,11.294c4.562,12.592,18.727,35.7,61.224,36.349,58.7,1.039,55.1-39.465,55.1-39.465S714.009,107.4,746.782,110c32.893,2.6,28.211,30.378,28.211,30.378s0,61.534,58.7,59.846,53.781-57.25,53.781-57.25V59.5L382.2,76.376V145.44Z" transform="translate(-382.2 -59.5)"/>
          <ellipse id="Ellipse_21" data-name="Ellipse 21" class="cls-3" cx="5.162" cy="5.582" rx="5.162" ry="5.582" transform="translate(314.643 82.045)"/>
          <ellipse id="Ellipse_22" data-name="Ellipse 22" class="cls-3" cx="7.323" cy="7.919" rx="7.323" ry="7.919" transform="translate(467.102 104.634)"/>
          <ellipse id="Ellipse_23" data-name="Ellipse 23" class="cls-3" cx="5.162" cy="5.582" rx="5.162" ry="5.582" transform="translate(481.748 82.045)"/>
          <ellipse id="Ellipse_24" data-name="Ellipse 24" class="cls-3" cx="7.323" cy="7.919" rx="7.323" ry="7.919" transform="translate(100.839 104.634)"/>
        </g>
        <g id="Group_49" data-name="Group 49" transform="translate(1105.549 226.144)">
          <path id="Path_73" data-name="Path 73" class="cls-4" d="M946.83,412.547l-.72-206.022s7.2-32.325-21.608-32.325a29.573,29.573,0,0,0-3.6.26c24.61,2.6,18.007,32.065,18.007,32.065l.72,206.022c0,8.308,6.362,15.059,14.045,15.059a11.52,11.52,0,0,0,3.6-.519A14.87,14.87,0,0,1,946.83,412.547Z" transform="translate(-920.9 -174.2)"/>
          <path id="Path_74" data-name="Path 74" class="cls-4" d="M1008.11,254.453s4.8-41.023-24.009-38.426c-.36,0-.84.13-1.2.13,22.089,3.245,18.007,38.3,18.007,38.3s.6,44.268,47.178,46.865a62.236,62.236,0,0,0,6.963,0C1008.71,298.722,1008.11,254.453,1008.11,254.453Z" transform="translate(-908.471 -161.763)"/>
        </g>
      </g>
      <g id="Group_52" data-name="Group 52" transform="translate(755.975 416.586)">
        <g id="Group_51" data-name="Group 51" class="cls-5" transform="translate(0 0)">
          <path id="Path_75" data-name="Path 75" class="cls-6" d="M.636.012a.588.588,0,0,1,.59.627A.666.666,0,0,1,.6,1.3.588.588,0,0,1,.014.671.666.666,0,0,1,.636.012Z" transform="matrix(0.936, -0.353, 0.353, 0.936, 2.548, 0.408)"/>
          <path id="Path_76" data-name="Path 76" class="cls-6" d="M.636.012a.588.588,0,0,1,.59.627A.666.666,0,0,1,.6,1.3.588.588,0,0,1,.014.671.666.666,0,0,1,.636.012Z" transform="matrix(0.936, -0.353, 0.353, 0.936, 0, 16.509)"/>
          <path id="Path_77" data-name="Path 77" class="cls-6" d="M.636.012a.588.588,0,0,1,.59.627A.666.666,0,0,1,.6,1.3.588.588,0,0,1,.014.671.666.666,0,0,1,.636.012Z" transform="translate(1.794 11.546) rotate(-20.708)"/>
          <path id="Path_78" data-name="Path 78" class="cls-6" d="M.636.012a.588.588,0,0,1,.59.627A.666.666,0,0,1,.6,1.3.588.588,0,0,1,.014.671.666.666,0,0,1,.636.012Z" transform="translate(0.469 4.77) rotate(-20.757)"/>
        </g>
      </g>
      <path id="Path_79" data-name="Path 79" class="cls-4" d="M1085.423,232.1s-1.08,2.077-5.4,17.136c-1.8,33.1,15.606,68.285,55.822,70.362a58.057,58.057,0,0,0,6.723,0C1080.621,315.833,1085.423,232.1,1085.423,232.1Z" transform="translate(216.491 69.209)"/>
    </g>
    <g id="GREY_DRIP_DRIP" data-name="GREY DRIP DRIP" transform="translate(0.032 -41.052)">
      <g id="Group_54" data-name="Group 54" transform="translate(958.696 1.2)">
        <g id="Group_53" data-name="Group 53">
          <path id="Path_80" data-name="Path 80" class="cls-1" d="M798.9,1V269.563c8.04,13.92,22.56,26.04,49.2,26.16,62.4.36,60-55.8,60-55.8s-4.8-29.88,24-29.88,21.6,29.88,21.6,29.88l.72,190.442a14.041,14.041,0,0,0,28.08,0V295.723s-7.2-33.12,21.6-35.52,24,35.52,24,35.52.6,40.92,47.161,43.32c46.44,2.4,51.24-43.32,51.24-43.32s-4.8,62.521,57.6,64.8c62.4,2.4,55.2-64.8,55.2-64.8s-3.24-55.441,30-55.8a45.421,45.421,0,0,1,10.32,1.08l-.6-240Z" transform="translate(-798.9 -1)"/>
        </g>
        <circle id="Ellipse_25" data-name="Ellipse 25" class="cls-7" cx="8.88" cy="8.88" r="8.88" transform="translate(408.244 325.323)"/>
        <circle id="Ellipse_26" data-name="Ellipse 26" class="cls-7" cx="5.64" cy="5.64" r="5.64" transform="translate(426.004 311.283)"/>
        <ellipse id="Ellipse_27" data-name="Ellipse 27" class="cls-7" cx="6.84" cy="6.72" rx="6.84" ry="6.72" transform="translate(296.763 315.603)"/>
        <circle id="Ellipse_28" data-name="Ellipse 28" class="cls-7" cx="4.32" cy="4.32" r="4.32" transform="translate(310.323 304.803)"/>
        <ellipse id="Ellipse_29" data-name="Ellipse 29" class="cls-7" cx="12.36" cy="12.24" rx="12.36" ry="12.24" transform="translate(62.881 256.682)"/>
        <circle id="Ellipse_30" data-name="Ellipse 30" class="cls-7" cx="7.8" cy="7.8" r="7.8" transform="translate(87.601 237.122)"/>
        <circle id="Ellipse_31" data-name="Ellipse 31" class="cls-7" cx="3.96" cy="3.96" r="3.96" transform="translate(178.802 419.764)"/>
      </g>
      <g id="Group_55" data-name="Group 55" transform="translate(0.006 1.2)">
        <path id="Path_81" data-name="Path 81" class="cls-1" d="M0,1V269.563c8.04,13.92,22.56,26.04,49.2,26.16,62.4.36,60-55.8,60-55.8s-4.8-29.88,24-29.88,21.6,29.88,21.6,29.88l.72,190.442a14.041,14.041,0,0,0,28.08,0V295.723s-7.2-33.12,21.6-35.52,24,35.52,24,35.52.6,40.92,47.16,43.32c46.44,2.4,51.241-43.32,51.241-43.32s-4.8,62.521,57.6,64.8c62.4,2.4,55.2-64.8,55.2-64.8s-3.24-55.441,30-55.8c43.68-.48,37.2,55.8,37.2,55.8V392.8a15.6,15.6,0,0,0,31.2,0V295.723s-.72-27.6,20.04-29.16c32.04-2.4,32.76,29.16,32.76,29.16s1.56,50.64,63.241,52.08c38.28.96,54.481-16.92,61.321-32.04a52.922,52.922,0,0,0,4.2-26.52c-1.32-14.52-1.56-49.32,24.84-49.32s21.72,55.8,21.72,55.8V428.8a15.48,15.48,0,0,0,30.96,0V295.723s-3.96-29.88,21.6-30.72c23.76-.72,27.96,20.64,28.68,28.2a46.94,46.94,0,0,0,2.04,10.08c3.96,12.12,15.84,34.68,48.48,35.88,51.6,1.8,51.6-43.32,51.6-43.32V1Z" transform="translate(0 -1)"/>
      </g>
      <path id="Path_82" data-name="Path 82" class="cls-8" d="M1439.8,238.922h-.72c-33.24.36-30,55.8-30,55.8s7.2,67.2-55.2,64.8c-60.841-2.28-57.84-61.8-57.6-64.681-.36,2.64-6.24,45.6-51.24,43.2-46.441-2.4-47.161-43.32-47.161-43.32s4.8-37.92-24-35.52-21.6,35.52-21.6,35.52V429.244a13.931,13.931,0,0,1-14.04,13.92,14.033,14.033,0,0,1-14.04-13.92l-.72-190.442s7.2-29.88-21.6-29.88-24,29.88-24,29.88,2.4,56.161-60,55.8c-41.88-.24-54-30.12-57.481-49.8v49.8s0,45.24-51.6,43.32c-32.76-1.2-44.52-23.76-48.481-35.88a46.944,46.944,0,0,1-2.04-10.08c-.72-7.56-4.92-28.92-28.68-28.2-25.56.84-21.6,30.72-21.6,30.72V427.564a14.93,14.93,0,0,1-4.56,10.92,15.443,15.443,0,0,1-26.4-10.92V294.723s4.68-55.8-21.72-55.8-26.16,34.92-24.84,49.32a52.714,52.714,0,0,1-4.2,26.52c-6.84,15.12-23.04,33-61.321,32.04-61.561-1.44-63.241-52.08-63.241-52.08s-.84-31.56-32.76-29.16c-20.76,1.56-20.04,29.16-20.04,29.16V391.8a15.408,15.408,0,0,1-4.56,11.04,15.613,15.613,0,0,1-26.64-10.92V294.843s6.48-56.4-37.2-55.8c-33.24.36-30,55.8-30,55.8s7.2,67.2-55.2,64.8c-60.841-2.28-57.841-61.8-57.6-64.681-.36,2.64-6.24,45.6-51.24,43.2-46.44-2.4-47.16-43.32-47.16-43.32s4.8-37.92-24-35.52-21.6,35.52-21.6,35.52V429.364a13.931,13.931,0,0,1-14.04,13.92,14.033,14.033,0,0,1-14.04-13.92l-.72-190.442s7.2-29.88-21.6-29.88-24,29.88-24,29.88,2.4,56.161-60,55.8-58.8-66.6-58.8-66.6V0H1439.32Z" transform="translate(0.1)"/>
      <g id="Group_56" data-name="Group 56" transform="translate(-0.032 1.2)">
        <path id="Path_83" data-name="Path 83" class="cls-7" d="M286.421,233.4s-1.08,1.92-5.4,15.84c-1.8,30.6,15.6,63.121,55.8,65.041a62.758,62.758,0,0,0,6.72,0C281.621,310.8,286.421,233.4,286.421,233.4Z" transform="translate(56.221 45.483)"/>
        <path id="Path_84" data-name="Path 84" class="cls-7" d="M443.64,353.082V256s6.48-56.4-37.2-55.8c-.96,0-1.8.12-2.64.12,38.64,3.24,32.64,55.561,32.64,55.561v97.081a15.544,15.544,0,0,0,15.6,15.48,12.388,12.388,0,0,0,3.6-.48A15.2,15.2,0,0,1,443.64,353.082Z" transform="translate(80.803 38.841)"/>
        <path id="Path_85" data-name="Path 85" class="cls-7" d="M147.92,395.522,147.2,205.08s7.2-29.88-21.6-29.88a31.93,31.93,0,0,0-3.6.24c24.6,2.4,18,29.64,18,29.64l.72,190.442a14.033,14.033,0,0,0,14.04,13.92,12.388,12.388,0,0,0,3.6-.48A14.175,14.175,0,0,1,147.92,395.522Z" transform="translate(24.44 33.842)"/>
        <path id="Path_86" data-name="Path 86" class="cls-7" d="M7.206,229.242V1H.006V229.242s-3.6,66.241,58.8,66.6c1.44,0,2.76,0,4.2-.12C3.726,293.2,7.206,229.242,7.206,229.242Z" transform="translate(0.032 -1)"/>
        <path id="Path_87" data-name="Path 87" class="cls-7" d="M512.52,251.482s-.84-31.56-32.76-29.16h-.36c25.32,2.28,25.92,29.04,25.92,29.04s1.56,50.641,63.241,52.081h6.36C514.08,301.642,512.52,251.482,512.52,251.482Z" transform="translate(95.924 43.241)"/>
        <path id="Path_88" data-name="Path 88" class="cls-7" d="M209.2,252.539s4.8-37.92-24-35.52c-.36,0-.84.12-1.2.12,22.08,3,18,35.4,18,35.4s.6,40.92,47.16,43.32a67.267,67.267,0,0,0,6.96,0C209.92,293.459,209.2,252.539,209.2,252.539Z" transform="translate(36.841 42.184)"/>
        <path id="Path_89" data-name="Path 89" class="cls-7" d="M657.38,388.982V255.9s4.68-55.8-21.72-55.8a20.229,20.229,0,0,0-3.96.36c22.8,4.44,18.48,55.561,18.48,55.561V389.1a15.518,15.518,0,0,0,15.48,15.48,12.388,12.388,0,0,0,3.6-.48A15.7,15.7,0,0,1,657.38,388.982Z" transform="translate(126.386 38.822)"/>
        <path id="Path_90" data-name="Path 90" class="cls-7" d="M728.12,259.283a46.94,46.94,0,0,1-2.04-10.08c-.72-7.56-4.92-28.92-28.68-28.2-.84,0-1.68.12-2.4.12,19.56,2.04,23.16,21,23.88,27.96a46.94,46.94,0,0,0,2.04,10.08c3.96,12.12,15.84,34.68,48.481,35.88a60.488,60.488,0,0,0,6.6,0C743.72,293.724,732.08,271.283,728.12,259.283Z" transform="translate(139.047 43)"/>
      </g>
      <ellipse id="Ellipse_32" data-name="Ellipse 32" class="cls-7" cx="12.36" cy="12.24" rx="12.36" ry="12.24" transform="translate(670.813 299.883)"/>
      <circle id="Ellipse_33" data-name="Ellipse 33" class="cls-7" cx="7.8" cy="7.8" r="7.8" transform="translate(695.413 280.443)"/>
      <circle id="Ellipse_34" data-name="Ellipse 34" class="cls-7" cx="3.96" cy="3.96" r="3.96" transform="translate(532.451 385.084)"/>
      <circle id="Ellipse_35" data-name="Ellipse 35" class="cls-7" cx="3.96" cy="3.96" r="3.96" transform="translate(791.774 421.804)"/>
      <circle id="Ellipse_36" data-name="Ellipse 36" class="cls-7" cx="9.6" cy="9.6" r="9.6" transform="translate(915.015 305.403)"/>
      <circle id="Ellipse_37" data-name="Ellipse 37" class="cls-7" cx="6.12" cy="6.12" r="6.12" transform="translate(934.215 290.163)"/>
      <circle id="Ellipse_38" data-name="Ellipse 38" class="cls-7" cx="8.88" cy="8.88" r="8.88" transform="translate(408.25 326.523)"/>
      <circle id="Ellipse_39" data-name="Ellipse 39" class="cls-7" cx="5.64" cy="5.64" r="5.64" transform="translate(426.01 312.483)"/>
      <ellipse id="Ellipse_40" data-name="Ellipse 40" class="cls-7" cx="6.84" cy="6.72" rx="6.84" ry="6.72" transform="translate(296.769 316.803)"/>
      <circle id="Ellipse_41" data-name="Ellipse 41" class="cls-7" cx="4.32" cy="4.32" r="4.32" transform="translate(310.449 306.003)"/>
      <ellipse id="Ellipse_42" data-name="Ellipse 42" class="cls-7" cx="12.36" cy="12.24" rx="12.36" ry="12.24" transform="translate(62.887 257.882)"/>
      <circle id="Ellipse_43" data-name="Ellipse 43" class="cls-7" cx="7.8" cy="7.8" r="7.8" transform="translate(87.607 238.322)"/>
      <circle id="Ellipse_44" data-name="Ellipse 44" class="cls-7" cx="3.96" cy="3.96" r="3.96" transform="translate(178.808 420.964)"/>
      <circle id="Ellipse_45" data-name="Ellipse 45" class="cls-7" cx="5.16" cy="5.16" r="5.16" transform="translate(1233.618 240.122)"/>
      <circle id="Ellipse_46" data-name="Ellipse 46" class="cls-7" cx="7.32" cy="7.32" r="7.32" transform="translate(1386.02 261.002)"/>
      <circle id="Ellipse_47" data-name="Ellipse 47" class="cls-7" cx="5.16" cy="5.16" r="5.16" transform="translate(1400.78 240.122)"/>
      <circle id="Ellipse_48" data-name="Ellipse 48" class="cls-7" cx="7.32" cy="7.32" r="7.32" transform="translate(1020.016 261.002)"/>
      <g id="Group_57" data-name="Group 57" transform="translate(1105.097 210.242)">
        <path id="Path_91" data-name="Path 91" class="cls-7" d="M946.82,395.522,946.1,205.08s7.2-29.88-21.6-29.88a31.933,31.933,0,0,0-3.6.24c24.6,2.4,18,29.64,18,29.64l.72,190.442a14.033,14.033,0,0,0,14.04,13.92,12.387,12.387,0,0,0,3.6-.48A13.9,13.9,0,0,1,946.82,395.522Z" transform="translate(-920.9 -175.2)"/>
        <path id="Path_92" data-name="Path 92" class="cls-7" d="M1008.1,252.539s4.8-37.92-24-35.52c-.36,0-.84.12-1.2.12,22.08,3,18,35.4,18,35.4s.6,40.92,47.161,43.32a67.27,67.27,0,0,0,6.96,0C1008.7,293.459,1008.1,252.539,1008.1,252.539Z" transform="translate(-908.499 -166.858)"/>
      </g>
      <g id="Group_59" data-name="Group 59" transform="translate(755.726 386.25)">
        <g id="Group_58" data-name="Group 58" class="cls-5">
          <circle id="Ellipse_49" data-name="Ellipse 49" class="cls-6" cx="0.6" cy="0.6" r="0.6" transform="matrix(0.936, -0.353, 0.353, 0.936, 2.547, 0.424)"/>
          <circle id="Ellipse_50" data-name="Ellipse 50" class="cls-6" cx="0.6" cy="0.6" r="0.6" transform="matrix(0.936, -0.353, 0.353, 0.936, 0, 15.307)"/>
          <circle id="Ellipse_51" data-name="Ellipse 51" class="cls-6" cx="0.6" cy="0.6" r="0.6" transform="translate(1.794 10.719) rotate(-20.708)"/>
          <circle id="Ellipse_52" data-name="Ellipse 52" class="cls-6" cx="0.6" cy="0.6" r="0.6" transform="translate(0.469 4.456) rotate(-20.757)"/>
        </g>
      </g>
      <path id="Path_93" data-name="Path 93" class="cls-7" d="M1085.421,233.1s-1.08,1.92-5.4,15.84c-1.8,30.6,15.6,63.121,55.8,65.041a62.756,62.756,0,0,0,6.72,0C1080.621,310.5,1085.421,233.1,1085.421,233.1Z" transform="translate(215.998 46.623)"/>
    </g>
  </g>
</svg>
