<svg xmlns="http://www.w3.org/2000/svg" xmlns:xlink="http://www.w3.org/1999/xlink" viewBox="8336.439 5087.385 1441.561 464.304">
  <defs>
    <style>
      .cls-1 {
        opacity: 0.16;
      }

      .cls-2 {
        fill: #ffc947;
      }

      .cls-3 {
        fill: url(#linear-gradient);
      }

      .cls-4 {
        fill: #fbb900;
      }

      .cls-5 {
        opacity: 0.9;
      }

      .cls-6 {
        fill: #050505;
        opacity: 0.2;
      }
    </style>
    <linearGradient id="linear-gradient" x1="0.499" y1="0.01" x2="0.502" y2="0.995" gradientUnits="objectBoundingBox">
      <stop offset="0" stop-color="#f7931e"/>
      <stop offset="1" stop-color="#f0f"/>
    </linearGradient>
  </defs>
  <g id="gradient_drip" data-name="gradient drip" transform="translate(9777.968 5551.689) rotate(180)">
    <g id="Group_19035" data-name="Group 19035" transform="translate(0.449 1.253)">
      <g id="Group_19034" data-name="Group 19034" transform="translate(0)">
        <path id="Path_4196" data-name="Path 4196" class="cls-1" d="M1280.168,1V281.462c-8.049,14.537-22.586,27.194-49.256,27.319-62.471.376-60.068-58.273-60.068-58.273s4.805-31.2-24.027-31.2-21.625,31.2-21.625,31.2l-.721,198.88a14.064,14.064,0,1,1-28.112,0V308.781s7.208-34.588-21.625-37.094-24.027,37.094-24.027,37.094-.6,42.733-47.214,45.24c-46.493,2.506-51.3-45.24-51.3-45.24s4.805,65.291-57.666,67.672c-62.471,2.506-55.263-67.672-55.263-67.672s3.244-57.9-30.034-58.273a43.671,43.671,0,0,0-10.332,1.128L799.5,1Z" transform="translate(-798.9 -1)"/>
      </g>
      <ellipse id="Ellipse_336" data-name="Ellipse 336" class="cls-2" cx="8.89" cy="9.274" rx="8.89" ry="9.274" transform="translate(54.782 339.737)"/>
      <ellipse id="Ellipse_337" data-name="Ellipse 337" class="cls-2" cx="5.646" cy="5.89" rx="5.646" ry="5.89" transform="translate(43.489 325.075)"/>
      <ellipse id="Ellipse_338" data-name="Ellipse 338" class="cls-2" cx="6.848" cy="7.018" rx="6.848" ry="7.018" transform="translate(170.474 329.587)"/>
      <ellipse id="Ellipse_339" data-name="Ellipse 339" class="cls-2" cx="4.325" cy="4.511" rx="4.325" ry="4.511" transform="translate(161.944 318.308)"/>
      <ellipse id="Ellipse_340" data-name="Ellipse 340" class="cls-2" cx="12.374" cy="12.782" rx="12.374" ry="12.782" transform="translate(393.568 268.055)"/>
      <ellipse id="Ellipse_341" data-name="Ellipse 341" class="cls-2" cx="7.809" cy="8.146" rx="7.809" ry="8.146" transform="translate(377.951 247.629)"/>
      <ellipse id="Ellipse_342" data-name="Ellipse 342" class="cls-2" cx="3.965" cy="4.135" rx="3.965" ry="4.135" transform="translate(294.335 438.363)"/>
    </g>
    <g id="Group_19036" data-name="Group 19036" transform="translate(490.126 1.253)">
      <path id="Path_4197" data-name="Path 4197" class="cls-1" d="M951.364,1V281.462c-8.049,14.537-22.586,27.194-49.256,27.319-62.471.376-60.068-58.273-60.068-58.273s4.805-31.2-24.027-31.2-21.625,31.2-21.625,31.2l-.721,198.88a14.064,14.064,0,1,1-28.112,0V308.781s7.208-34.588-21.625-37.094S721.9,308.781,721.9,308.781s-.6,42.733-47.214,45.24c-46.493,2.506-51.3-45.24-51.3-45.24s4.805,65.291-57.666,67.672c-62.471,2.506-55.263-67.672-55.263-67.672s3.244-57.9-30.034-58.273c-43.73-.5-37.242,58.273-37.242,58.273V410.164c0,8.9-6.968,16.166-15.618,16.166s-15.618-7.268-15.618-16.166V308.781s.721-28.823-20.063-30.452c-32.077-2.506-32.8,30.452-32.8,30.452s-1.562,52.884-63.312,54.388c-38.324,1-54.542-17.67-61.39-33.46a57.407,57.407,0,0,1-4.2-27.7c1.321-15.164,1.562-51.506-24.868-51.506s-21.745,58.273-21.745,58.273V447.759c0,8.9-6.968,16.166-15.5,16.166s-15.5-7.268-15.5-16.166V308.781s3.964-31.2-21.625-32.081c-23.787-.752-27.992,21.555-28.713,29.45a50.874,50.874,0,0,1-2.042,10.527c-3.965,12.657-15.858,36.217-48.535,37.47C0,356.026,0,308.906,0,308.906V1Z" transform="translate(0 -1)"/>
    </g>
    <path id="Path_4198" data-name="Path 4198" class="cls-3" d="M.468,249.508h.721c33.278.376,30.034,58.273,30.034,58.273s-7.208,70.178,55.263,67.672c60.909-2.381,57.906-64.539,57.666-67.546.36,2.757,6.247,47.621,51.3,45.115,46.493-2.506,47.214-45.24,47.214-45.24s-4.805-39.6,24.027-37.094,21.625,37.094,21.625,37.094V448.263a14.811,14.811,0,0,0,4.085,10.276,13.679,13.679,0,0,0,9.971,4.261,14.356,14.356,0,0,0,14.056-14.537l.721-198.88s-7.208-31.2,21.625-31.2,24.027,31.2,24.027,31.2-2.4,58.649,60.068,58.273c41.928-.251,54.062-31.455,57.546-52.007v52.007s0,47.245,51.659,45.24c32.8-1.253,44.571-24.813,48.535-37.47a50.876,50.876,0,0,0,2.042-10.527c.721-7.9,4.926-30.2,28.713-29.45,25.589.877,21.625,32.081,21.625,32.081V446.508a15.929,15.929,0,0,0,4.565,11.4,15.33,15.33,0,0,0,10.932,4.762c8.53,0,15.5-7.268,15.5-16.166V307.781s-4.685-58.273,21.745-58.273,26.19,36.468,24.868,51.506a57.18,57.18,0,0,0,4.2,27.7c6.848,15.79,23.066,34.462,61.39,33.46,61.63-1.5,63.312-54.388,63.312-54.388s.841-32.959,32.8-30.452c20.784,1.629,20.063,30.452,20.063,30.452V409.164a16.447,16.447,0,0,0,4.565,11.529,15.394,15.394,0,0,0,11.053,4.762c8.65,0,15.618-7.268,15.618-16.166V307.907s-6.487-58.9,37.242-58.273c33.278.376,30.034,58.273,30.034,58.273s-7.208,70.178,55.263,67.672c60.909-2.381,57.906-64.539,57.666-67.546.36,2.757,6.247,47.621,51.3,45.115,46.493-2.506,47.214-45.24,47.214-45.24s-4.805-39.6,24.027-37.094,21.625,37.094,21.625,37.094V448.388a14.812,14.812,0,0,0,4.085,10.276,13.679,13.679,0,0,0,9.971,4.261,14.356,14.356,0,0,0,14.056-14.537l.721-198.88s-7.208-31.2,21.625-31.2,24.027,31.2,24.027,31.2-2.4,58.649,60.068,58.273,58.867-69.551,58.867-69.551V0H.949Z" transform="translate(-0.5)"/>
    <g id="Group_19037" data-name="Group 19037" transform="translate(525.447 1.253)">
      <path id="Path_4199" data-name="Path 4199" class="cls-4" d="M338.08,233.4s1.081,2.005,5.406,16.542c1.8,31.956-15.618,65.917-55.864,67.922a60.223,60.223,0,0,1-6.728,0C342.885,314.23,338.08,233.4,338.08,233.4Z" transform="translate(234.973 57.839)"/>
      <path id="Path_4200" data-name="Path 4200" class="cls-4" d="M415.814,359.856V258.474s-6.487-58.9,37.242-58.273c.961,0,1.8.125,2.643.125-38.684,3.384-32.677,58.022-32.677,58.022V359.731c0,8.9-6.968,16.166-15.618,16.166a11.923,11.923,0,0,1-3.6-.5A15.732,15.732,0,0,0,415.814,359.856Z" transform="translate(-24.768 49.433)"/>
      <path id="Path_4201" data-name="Path 4201" class="cls-4" d="M132.452,405.284l.721-198.88s-7.208-31.2,21.625-31.2a30.666,30.666,0,0,1,3.6.251c-24.628,2.506-18.021,30.954-18.021,30.954l-.721,198.88A14.356,14.356,0,0,1,125.6,419.821a11.921,11.921,0,0,1-3.6-.5A14.7,14.7,0,0,0,132.452,405.284Z" transform="translate(611.075 43.104)"/>
      <path id="Path_4202" data-name="Path 4202" class="cls-4" d="M55.832,239.355V1H63.04V239.355s3.6,69.176-58.867,69.551c-1.442,0-2.763,0-4.2-.125C59.316,306.15,55.832,239.355,55.832,239.355Z" transform="translate(853.004 -1)"/>
      <path id="Path_4203" data-name="Path 4203" class="cls-4" d="M541.871,252.78s.841-32.959,32.8-30.452h.36c-25.349,2.381-25.95,30.327-25.95,30.327s-1.562,52.884-63.312,54.388H479.4C540.309,305.163,541.871,252.78,541.871,252.78Z" transform="translate(-234.921 55.001)"/>
      <path id="Path_4204" data-name="Path 4204" class="cls-4" d="M230.974,254.117s-4.805-39.6,24.027-37.094c.36,0,.841.125,1.2.125-22.105,3.133-18.021,36.969-18.021,36.969s-.6,42.734-47.214,45.24a64.6,64.6,0,0,1-6.968,0C230.253,296.851,230.974,254.117,230.974,254.117Z" transform="translate(438.79 53.664)"/>
      <path id="Path_4205" data-name="Path 4205" class="cls-4" d="M643.594,397.351V258.373S638.908,200.1,665.338,200.1a19.441,19.441,0,0,1,3.964.376c-22.826,4.637-18.5,58.022-18.5,58.022V397.476c0,8.9-6.968,16.166-15.5,16.166a11.921,11.921,0,0,1-3.6-.5A16.272,16.272,0,0,0,643.594,397.351Z" transform="translate(-512.164 49.408)"/>
      <path id="Path_4206" data-name="Path 4206" class="cls-4" d="M742.935,260.98a50.871,50.871,0,0,0,2.042-10.527c.721-7.9,4.926-30.2,28.713-29.45.841,0,1.682.125,2.4.125-19.582,2.13-23.186,21.931-23.907,29.2a50.88,50.88,0,0,1-2.042,10.527c-3.965,12.657-15.858,36.217-48.535,37.47a58.061,58.061,0,0,1-6.608,0C727.317,296.946,738.97,273.512,742.935,260.98Z" transform="translate(-695 54.696)"/>
    </g>
    <ellipse id="Ellipse_343" data-name="Ellipse 343" class="cls-2" cx="12.374" cy="12.782" rx="12.374" ry="12.782" transform="translate(745.177 313.17)"/>
    <ellipse id="Ellipse_344" data-name="Ellipse 344" class="cls-2" cx="7.809" cy="8.146" rx="7.809" ry="8.146" transform="translate(729.68 292.868)"/>
    <ellipse id="Ellipse_345" data-name="Ellipse 345" class="cls-2" cx="3.965" cy="4.135" rx="3.965" ry="4.135" transform="translate(900.514 402.146)"/>
    <ellipse id="Ellipse_346" data-name="Ellipse 346" class="cls-2" cx="3.965" cy="4.135" rx="3.965" ry="4.135" transform="translate(640.898 440.493)"/>
    <ellipse id="Ellipse_347" data-name="Ellipse 347" class="cls-2" cx="9.611" cy="10.025" rx="9.611" ry="10.025" transform="translate(506.225 318.935)"/>
    <ellipse id="Ellipse_348" data-name="Ellipse 348" class="cls-2" cx="6.127" cy="6.391" rx="6.127" ry="6.391" transform="translate(493.971 303.019)"/>
    <ellipse id="Ellipse_349" data-name="Ellipse 349" class="cls-2" cx="8.89" cy="9.274" rx="8.89" ry="9.274" transform="translate(1015.005 340.991)"/>
    <ellipse id="Ellipse_350" data-name="Ellipse 350" class="cls-2" cx="5.646" cy="5.89" rx="5.646" ry="5.89" transform="translate(1003.712 326.328)"/>
    <ellipse id="Ellipse_351" data-name="Ellipse 351" class="cls-2" cx="6.848" cy="7.018" rx="6.848" ry="7.018" transform="translate(1130.696 330.84)"/>
    <ellipse id="Ellipse_352" data-name="Ellipse 352" class="cls-2" cx="4.325" cy="4.511" rx="4.325" ry="4.511" transform="translate(1122.047 319.561)"/>
    <ellipse id="Ellipse_353" data-name="Ellipse 353" class="cls-2" cx="12.374" cy="12.782" rx="12.374" ry="12.782" transform="translate(1353.791 269.309)"/>
    <ellipse id="Ellipse_354" data-name="Ellipse 354" class="cls-2" cx="7.809" cy="8.146" rx="7.809" ry="8.146" transform="translate(1338.173 248.882)"/>
    <ellipse id="Ellipse_355" data-name="Ellipse 355" class="cls-2" cx="3.965" cy="4.135" rx="3.965" ry="4.135" transform="translate(1254.557 439.616)"/>
    <ellipse id="Ellipse_356" data-name="Ellipse 356" class="cls-2" cx="5.166" cy="5.389" rx="5.166" ry="5.389" transform="translate(196.152 250.762)"/>
    <ellipse id="Ellipse_357" data-name="Ellipse 357" class="cls-2" cx="7.328" cy="7.644" rx="7.328" ry="7.644" transform="translate(39.253 272.567)"/>
    <ellipse id="Ellipse_358" data-name="Ellipse 358" class="cls-2" cx="5.166" cy="5.389" rx="5.166" ry="5.389" transform="translate(28.801 250.762)"/>
    <ellipse id="Ellipse_359" data-name="Ellipse 359" class="cls-2" cx="7.328" cy="7.644" rx="7.328" ry="7.644" transform="translate(405.67 272.567)"/>
    <g id="Group_19038" data-name="Group 19038" transform="translate(188.463 219.557)">
      <path id="Path_4207" data-name="Path 4207" class="cls-4" d="M931.352,405.284l.721-198.88s-7.208-31.2,21.625-31.2a30.663,30.663,0,0,1,3.6.251c-24.628,2.506-18.021,30.954-18.021,30.954l-.721,198.88A14.356,14.356,0,0,1,924.5,419.821a11.92,11.92,0,0,1-3.6-.5A14.417,14.417,0,0,0,931.352,405.284Z" transform="translate(-810.614 -175.2)"/>
      <path id="Path_4208" data-name="Path 4208" class="cls-4" d="M1029.874,254.117s-4.805-39.6,24.027-37.094c.36,0,.841.125,1.2.125-22.105,3.133-18.021,36.969-18.021,36.969s-.6,42.734-47.214,45.24a64.6,64.6,0,0,1-6.968,0C1029.273,296.851,1029.874,254.117,1029.874,254.117Z" transform="translate(-982.9 -164.64)"/>
    </g>
    <g id="Group_19040" data-name="Group 19040" transform="translate(680.807 403.375)">
      <g id="Group_19039" data-name="Group 19039" class="cls-5" transform="translate(0 0)">
        <path id="Path_4209" data-name="Path 4209" class="cls-6" d="M.613,1.247a.594.594,0,0,0,.6-.615A.635.635,0,0,0,.6,0,.594.594,0,0,0,0,.615.635.635,0,0,0,.613,1.247Z" transform="translate(1.13 1.593) rotate(-159.305)"/>
        <path id="Path_4210" data-name="Path 4210" class="cls-6" d="M.613,1.247a.594.594,0,0,0,.6-.615A.635.635,0,0,0,.6,0,.594.594,0,0,0,0,.615.635.635,0,0,0,.613,1.247Z" transform="translate(3.68 17.136) rotate(-159.305)"/>
        <path id="Path_4211" data-name="Path 4211" class="cls-6" d="M.613,1.247a.594.594,0,0,0,.6-.615A.635.635,0,0,0,.6,0,.594.594,0,0,0,0,.615.635.635,0,0,0,.613,1.247Z" transform="translate(1.884 12.344) rotate(-159.292)"/>
        <path id="Path_4212" data-name="Path 4212" class="cls-6" d="M.613,1.247a.594.594,0,0,0,.6-.615A.635.635,0,0,0,.6,0,.594.594,0,0,0,0,.615.635.635,0,0,0,.613,1.247Z" transform="matrix(-0.935, -0.354, 0.354, -0.935, 3.209, 5.803)"/>
      </g>
    </g>
    <path id="Path_4213" data-name="Path 4213" class="cls-4" d="M1137.08,233.1s1.081,2.005,5.406,16.542c1.8,31.956-15.618,65.917-55.864,67.922a60.223,60.223,0,0,1-6.728,0C1141.885,313.93,1137.08,233.1,1137.08,233.1Z" transform="translate(-998.474 59.016)"/>
  </g>
</svg>
